<svg width="24" height="26" viewBox="0 0 24 26" fill="none" xmlns="http://www.w3.org/2000/svg">
<path d="M11.0493 13.2285V12.3137C11.0493 11.8823 11.4099 11.5321 11.8542 11.5321C12.2986 11.5321 12.6592 11.8823 12.6592 12.3137V13.0951H13.4641C13.9084 13.0951 14.269 13.4452 14.269 13.8766C14.269 14.308 13.9084 14.6582 13.4641 14.6582H11.8668L11.8542 14.6583L11.8455 14.6582C11.4052 14.6628 11.0493 15.0111 11.0493 15.4397C11.0493 15.8711 11.4099 16.2212 11.8542 16.2212C13.188 16.2212 14.269 17.2708 14.269 18.5658C14.269 19.5868 13.5971 20.4552 12.6592 20.777V21.692C12.6592 22.1234 12.2986 22.4736 11.8542 22.4736C11.4099 22.4736 11.0493 22.1234 11.0493 21.692V20.9104H10.2444C9.80008 20.9104 9.43947 20.5603 9.43947 20.1289C9.43947 19.6975 9.80008 19.3474 10.2444 19.3474H11.8542C12.2986 19.3474 12.6592 18.9972 12.6592 18.5658C12.6592 18.1344 12.2986 17.7843 11.8542 17.7843C10.5205 17.7843 9.43947 16.7347 9.43947 15.4397C9.43947 14.4187 10.1114 13.5503 11.0493 13.2285Z" fill="#878787"/>
<path fill-rule="evenodd" clip-rule="evenodd" d="M8.0402 1.20778C8.9446 0.32966 10.6088 0.386028 11.7398 1.4841C11.9981 1.73487 12.2004 2.01265 12.3481 2.30249C13.4436 1.53564 14.844 1.57917 15.6463 2.35821C16.5507 3.23634 16.4927 4.85222 15.3618 5.95029C14.574 6.71517 13.5274 6.97461 12.6592 6.76483V8.44106C17.1693 8.83646 20.7083 12.5215 20.7083 17.0028C20.7083 21.7475 16.741 25.5996 11.8542 25.5996C6.96738 25.5996 3 21.7475 3 17.0028C3 12.5214 6.53911 8.83638 11.0493 8.44104V5.60898C10.1768 5.82852 9.11921 5.5712 8.32478 4.79985C7.19385 3.70179 7.13579 2.08591 8.0402 1.20778ZM11.0681 3.5486C11.0582 3.5924 11.0521 3.63756 11.05 3.68375C11.0243 3.79063 10.971 3.8884 10.886 3.97091C10.532 4.31465 9.90535 4.12399 9.46311 3.6946C9.02087 3.26521 8.82451 2.65677 9.17853 2.31304C9.53255 1.9693 10.1592 2.15996 10.6014 2.58935C10.8942 2.87355 11.0791 3.23619 11.0681 3.5486ZM12.6592 4.4073V4.90769C12.6889 4.98601 12.7354 5.05815 12.8005 5.12135C13.1545 5.46508 13.7812 5.27442 14.2234 4.84503C14.6657 4.41564 14.862 3.8072 14.508 3.46347C14.154 3.11973 13.5273 3.31039 13.0851 3.73978C12.8803 3.93859 12.7283 4.17577 12.6592 4.4073ZM11.8226 9.96906C7.83842 9.98559 4.60985 13.1305 4.60985 17.0028C4.60985 20.8852 7.85548 24.0365 11.8542 24.0365C15.8529 24.0365 19.0985 20.8852 19.0985 17.0028C19.0985 13.1306 15.87 9.98566 11.8859 9.96906C11.8754 9.96946 11.8648 9.96966 11.8542 9.96966C11.8436 9.96966 11.8331 9.96946 11.8226 9.96906Z" fill="#878787"/>
<path d="M11.7398 1.4841L11.6005 1.62759L11.6005 1.62759L11.7398 1.4841ZM8.0402 1.20778L7.90088 1.06429L7.90088 1.06429L8.0402 1.20778ZM12.3481 2.30249L12.1699 2.39328L12.2743 2.59825L12.4628 2.46633L12.3481 2.30249ZM15.6463 2.35821L15.7857 2.21472L15.7857 2.21472L15.6463 2.35821ZM15.3618 5.95029L15.5011 6.09378L15.5011 6.09378L15.3618 5.95029ZM12.6592 6.76483L12.7061 6.57042L12.4592 6.51075V6.76483H12.6592ZM12.6592 8.44106H12.4592V8.62429L12.6417 8.64029L12.6592 8.44106ZM11.0493 8.44104L11.0668 8.64028L11.2493 8.62428V8.44104H11.0493ZM11.0493 5.60898H11.2493V5.35243L11.0005 5.41503L11.0493 5.60898ZM8.32478 4.79985L8.4641 4.65636L8.4641 4.65636L8.32478 4.79985ZM11.05 3.68375L11.2445 3.73062L11.249 3.71179L11.2499 3.69243L11.05 3.68375ZM11.0681 3.5486L11.2632 3.59285L11.2673 3.57448L11.268 3.55564L11.0681 3.5486ZM10.886 3.97091L10.7467 3.82742L10.7467 3.82742L10.886 3.97091ZM9.46311 3.6946L9.60243 3.55111L9.60243 3.55111L9.46311 3.6946ZM9.17853 2.31304L9.03921 2.16954L9.03921 2.16954L9.17853 2.31304ZM10.6014 2.58935L10.4621 2.73284L10.4621 2.73284L10.6014 2.58935ZM12.6592 4.90769H12.4592V4.94441L12.4722 4.97875L12.6592 4.90769ZM12.6592 4.4073L12.4675 4.35009L12.4592 4.37808V4.4073H12.6592ZM12.8005 5.12135L12.6612 5.26484L12.6612 5.26484L12.8005 5.12135ZM14.2234 4.84503L14.3627 4.98852L14.3627 4.98852L14.2234 4.84503ZM14.508 3.46347L14.3687 3.60696L14.3687 3.60696L14.508 3.46347ZM13.0851 3.73978L12.9458 3.59629L12.9458 3.59629L13.0851 3.73978ZM11.8226 9.96906L11.8301 9.76903L11.8218 9.76906L11.8226 9.96906ZM11.8859 9.96906L11.8867 9.76889L11.8783 9.7692L11.8859 9.96906ZM11.0493 13.2285L11.1142 13.4177L11.2493 13.3713V13.2285H11.0493ZM12.6592 13.0951H12.4592V13.2951H12.6592V13.0951ZM11.8668 14.6582L11.8668 14.4582L11.8653 14.4582L11.8668 14.6582ZM11.8542 14.6583L11.8532 14.8583L11.8557 14.8583L11.8542 14.6583ZM11.8455 14.6582L11.8465 14.4582L11.8435 14.4582L11.8455 14.6582ZM12.6592 20.777L12.5943 20.5879L12.4592 20.6342V20.777H12.6592ZM11.0493 20.9104H11.2493V20.7104H11.0493V20.9104ZM11.8791 1.34061C10.6876 0.183731 8.89886 0.095307 7.90088 1.06429L8.17952 1.35127C8.99034 0.564013 10.5301 0.588325 11.6005 1.62759L11.8791 1.34061ZM12.5263 2.21169C12.3685 1.90202 12.1529 1.60649 11.8791 1.34061L11.6005 1.62759C11.8432 1.86325 12.0323 2.12328 12.1699 2.39328L12.5263 2.21169ZM12.4628 2.46633C13.4969 1.74242 14.7876 1.80316 15.507 2.50171L15.7857 2.21472C14.9004 1.35518 13.3902 1.32886 12.2334 2.13864L12.4628 2.46633ZM15.507 2.50171C16.3131 3.28433 16.2911 4.76921 15.2224 5.80679L15.5011 6.09378C16.6943 4.93522 16.7884 3.18835 15.7857 2.21472L15.507 2.50171ZM15.2224 5.80679C14.4812 6.52648 13.5041 6.76322 12.7061 6.57042L12.6122 6.95923C13.5507 7.186 14.6667 6.90386 15.5011 6.09378L15.2224 5.80679ZM12.4592 6.76483V8.44106H12.8592V6.76483H12.4592ZM12.6417 8.64029C17.0544 9.02716 20.5083 12.6309 20.5083 17.0028H20.9083C20.9083 12.412 17.2842 8.64577 12.6766 8.24182L12.6417 8.64029ZM20.5083 17.0028C20.5083 21.6316 16.6361 25.3996 11.8542 25.3996V25.7996C16.8458 25.7996 20.9083 21.8635 20.9083 17.0028H20.5083ZM11.8542 25.3996C7.07224 25.3996 3.2 21.6316 3.2 17.0028H2.8C2.8 21.8635 6.86253 25.7996 11.8542 25.7996V25.3996ZM3.2 17.0028C3.2 12.6309 6.65401 9.02708 11.0668 8.64028L11.0319 8.24181C6.42421 8.64569 2.8 12.412 2.8 17.0028H3.2ZM11.2493 8.44104V5.60898H10.8493V8.44104H11.2493ZM8.18546 4.94334C9.02679 5.76023 10.1547 6.04033 11.0981 5.80294L11.0005 5.41503C10.199 5.61672 9.21163 5.38217 8.4641 4.65636L8.18546 4.94334ZM7.90088 1.06429C6.89811 2.03792 6.99223 3.78479 8.18546 4.94334L8.4641 4.65636C7.39547 3.61878 7.37347 2.13389 8.17952 1.35127L7.90088 1.06429ZM11.2499 3.69243C11.2513 3.65831 11.2559 3.62505 11.2632 3.59285L10.8731 3.50434C10.8605 3.55974 10.8528 3.61681 10.8502 3.67506L11.2499 3.69243ZM10.8556 3.63688C10.8384 3.7082 10.8037 3.77211 10.7467 3.82742L11.0253 4.11441C11.1383 4.00469 11.2101 3.87306 11.2445 3.73062L10.8556 3.63688ZM10.7467 3.82742C10.6326 3.93822 10.4644 3.97605 10.2521 3.92768C10.0382 3.87895 9.80254 3.7454 9.60243 3.55111L9.32379 3.83809C9.56593 4.07319 9.8647 4.24967 10.1632 4.31768C10.4633 4.38605 10.7854 4.34734 11.0253 4.11441L10.7467 3.82742ZM9.60243 3.55111C9.40212 3.35662 9.26601 3.12905 9.21662 2.92471C9.16804 2.7237 9.2054 2.56571 9.31785 2.45653L9.03921 2.16954C8.79763 2.4041 8.75616 2.72219 8.82782 3.01868C8.89867 3.31185 9.08186 3.60319 9.32379 3.83809L9.60243 3.55111ZM9.31785 2.45653C9.43196 2.34573 9.60014 2.3079 9.81248 2.35627C10.0263 2.405 10.262 2.53855 10.4621 2.73284L10.7408 2.44586C10.4986 2.21076 10.1999 2.03428 9.90133 1.96627C9.60127 1.8979 9.27912 1.93661 9.03921 2.16954L9.31785 2.45653ZM10.4621 2.73284C10.7314 2.99432 10.8766 3.30576 10.8683 3.54155L11.268 3.55564C11.2817 3.16662 11.0569 2.75278 10.7408 2.44586L10.4621 2.73284ZM12.8592 4.90769V4.4073H12.4592V4.90769H12.8592ZM12.9398 4.97786C12.8958 4.93509 12.8655 4.88769 12.8461 4.83663L12.4722 4.97875C12.5123 5.08434 12.5751 5.18122 12.6612 5.26484L12.9398 4.97786ZM14.0841 4.70154C13.884 4.89583 13.6483 5.02938 13.4344 5.07811C13.2221 5.12649 13.0539 5.08865 12.9398 4.97785L12.6612 5.26484C12.9011 5.49777 13.2232 5.53648 13.5233 5.46811C13.8218 5.4001 14.1206 5.22362 14.3627 4.98852L14.0841 4.70154ZM14.3687 3.60696C14.4811 3.71614 14.5185 3.87414 14.4699 4.07515C14.4205 4.27948 14.2844 4.50705 14.0841 4.70154L14.3627 4.98852C14.6047 4.75362 14.7879 4.46228 14.8587 4.16911C14.9304 3.87262 14.8889 3.55453 14.6473 3.31998L14.3687 3.60696ZM13.2244 3.88327C13.4245 3.68898 13.6602 3.55543 13.8741 3.5067C14.0864 3.45833 14.2546 3.49616 14.3687 3.60696L14.6473 3.31998C14.4074 3.08704 14.0853 3.04833 13.7852 3.1167C13.4867 3.18471 13.1879 3.36119 12.9458 3.59629L13.2244 3.88327ZM12.8508 4.46451C12.9084 4.27164 13.0394 4.06295 13.2244 3.88327L12.9458 3.59629C12.7213 3.81422 12.5482 4.07991 12.4675 4.35009L12.8508 4.46451ZM4.80985 17.0028C4.80985 13.2462 7.94376 10.1852 11.8234 10.1691L11.8218 9.76906C7.73307 9.78603 4.40985 13.0149 4.40985 17.0028H4.80985ZM11.8542 23.8365C7.96034 23.8365 4.80985 20.7693 4.80985 17.0028H4.40985C4.40985 21.0012 7.75063 24.2365 11.8542 24.2365V23.8365ZM18.8985 17.0028C18.8985 20.7693 15.748 23.8365 11.8542 23.8365V24.2365C15.9577 24.2365 19.2985 21.0012 19.2985 17.0028H18.8985ZM11.885 10.1691C15.7646 10.1852 18.8985 13.2462 18.8985 17.0028H19.2985C19.2985 13.0149 15.9753 9.7861 11.8867 9.76906L11.885 10.1691ZM11.8542 10.1697C11.8673 10.1697 11.8804 10.1694 11.8934 10.1689L11.8783 9.7692C11.8704 9.7695 11.8623 9.76966 11.8542 9.76966V10.1697ZM11.8151 10.1689C11.8281 10.1694 11.8411 10.1697 11.8542 10.1697V9.76966C11.8462 9.76966 11.8381 9.7695 11.8301 9.7692L11.8151 10.1689ZM10.8493 12.3137V13.2285H11.2493V12.3137H10.8493ZM11.8542 11.3321C11.3051 11.3321 10.8493 11.7663 10.8493 12.3137H11.2493C11.2493 11.9982 11.5148 11.7321 11.8542 11.7321V11.3321ZM12.8592 12.3137C12.8592 11.7663 12.4034 11.3321 11.8542 11.3321V11.7321C12.1937 11.7321 12.4592 11.9982 12.4592 12.3137H12.8592ZM12.8592 13.0951V12.3137H12.4592V13.0951H12.8592ZM13.4641 12.8951H12.6592V13.2951H13.4641V12.8951ZM14.469 13.8766C14.469 13.3293 14.0133 12.8951 13.4641 12.8951V13.2951C13.8035 13.2951 14.069 13.5612 14.069 13.8766H14.469ZM13.4641 14.8582C14.0133 14.8582 14.469 14.424 14.469 13.8766H14.069C14.069 14.1921 13.8035 14.4582 13.4641 14.4582V14.8582ZM11.8668 14.8582H13.4641V14.4582H11.8668V14.8582ZM11.8557 14.8583L11.8683 14.8582L11.8653 14.4582L11.8528 14.4583L11.8557 14.8583ZM11.8445 14.8582L11.8532 14.8583L11.8553 14.4583L11.8465 14.4582L11.8445 14.8582ZM11.2493 15.4397C11.2493 15.1263 11.5113 14.8617 11.8476 14.8582L11.8435 14.4582C11.2991 14.4638 10.8493 14.8959 10.8493 15.4397H11.2493ZM11.8542 16.0212C11.5148 16.0212 11.2493 15.7551 11.2493 15.4397H10.8493C10.8493 15.9871 11.3051 16.4212 11.8542 16.4212V16.0212ZM14.469 18.5658C14.469 17.1549 13.2929 16.0212 11.8542 16.0212V16.4212C13.0831 16.4212 14.069 17.3868 14.069 18.5658H14.469ZM12.7241 20.9662C13.7373 20.6185 14.469 19.6779 14.469 18.5658H14.069C14.069 19.4957 13.4569 20.2919 12.5943 20.5879L12.7241 20.9662ZM12.8592 21.692V20.777H12.4592V21.692H12.8592ZM11.8542 22.6736C12.4034 22.6736 12.8592 22.2394 12.8592 21.692H12.4592C12.4592 22.0075 12.1937 22.2736 11.8542 22.2736V22.6736ZM10.8493 21.692C10.8493 22.2394 11.3051 22.6736 11.8542 22.6736V22.2736C11.5148 22.2736 11.2493 22.0075 11.2493 21.692H10.8493ZM10.8493 20.9104V21.692H11.2493V20.9104H10.8493ZM10.2444 21.1104H11.0493V20.7104H10.2444V21.1104ZM9.23947 20.1289C9.23947 20.6763 9.69522 21.1104 10.2444 21.1104V20.7104C9.90493 20.7104 9.63947 20.4443 9.63947 20.1289H9.23947ZM10.2444 19.1474C9.69522 19.1474 9.23947 19.5815 9.23947 20.1289H9.63947C9.63947 19.8135 9.90493 19.5474 10.2444 19.5474V19.1474ZM11.8542 19.1474H10.2444V19.5474H11.8542V19.1474ZM12.4592 18.5658C12.4592 18.8813 12.1937 19.1474 11.8542 19.1474V19.5474C12.4034 19.5474 12.8592 19.1132 12.8592 18.5658H12.4592ZM11.8542 17.9843C12.1937 17.9843 12.4592 18.2504 12.4592 18.5658H12.8592C12.8592 18.0184 12.4034 17.5843 11.8542 17.5843V17.9843ZM9.23947 15.4397C9.23947 16.8507 10.4156 17.9843 11.8542 17.9843V17.5843C10.6253 17.5843 9.63947 16.6187 9.63947 15.4397H9.23947ZM10.9844 13.0393C9.97115 13.387 9.23947 14.3276 9.23947 15.4397H9.63947C9.63947 14.5099 10.2516 13.7137 11.1142 13.4177L10.9844 13.0393Z" fill="#878787"/>
</svg>
