<svg width="20" height="20" viewBox="0 0 20 20" fill="none" xmlns="http://www.w3.org/2000/svg">
<path fill-rule="evenodd" clip-rule="evenodd" d="M6.66671 0.831543C7.12786 0.831543 7.50171 1.20539 7.50171 1.66654V2.49821H12.4984V1.66654C12.4984 1.20539 12.8722 0.831543 13.3334 0.831543C13.7945 0.831543 14.1684 1.20539 14.1684 1.66654V2.49821H15.8334C17.215 2.49821 18.335 3.61824 18.335 4.99988V16.6665C18.335 18.0482 17.215 19.1682 15.8334 19.1682H4.16671C2.78507 19.1682 1.66504 18.0482 1.66504 16.6665V4.99988C1.66504 3.61824 2.78507 2.49821 4.16671 2.49821H5.83171V1.66654C5.83171 1.20539 6.20555 0.831543 6.66671 0.831543ZM5.83171 4.16821H4.16671C3.70739 4.16821 3.33504 4.54056 3.33504 4.99988V7.49821H16.665V4.99988C16.665 4.54056 16.2927 4.16821 15.8334 4.16821H14.1684V4.99988C14.1684 5.46103 13.7945 5.83488 13.3334 5.83488C12.8722 5.83488 12.4984 5.46103 12.4984 4.99988V4.16821H7.50171V4.99988C7.50171 5.46103 7.12786 5.83488 6.66671 5.83488C6.20555 5.83488 5.83171 5.46103 5.83171 4.99988V4.16821ZM16.665 9.16821H3.33504V16.6665C3.33504 17.1259 3.70739 17.4982 4.16671 17.4982H15.8334C16.2927 17.4982 16.665 17.1259 16.665 16.6665V9.16821Z" fill="#747474"/>
</svg>
