<svg width="20" height="20" viewBox="0 0 20 20" fill="none" xmlns="http://www.w3.org/2000/svg">
<path fill-rule="evenodd" clip-rule="evenodd" d="M13.0517 3.14581C11.5747 2.48771 9.92459 2.32467 8.34739 2.68102C6.77018 3.03737 5.35043 3.89401 4.29985 5.12318C3.24928 6.35234 2.62419 7.88818 2.5178 9.50163C2.41141 11.1151 2.82942 12.7197 3.7095 14.0762C4.58957 15.4327 5.88455 16.4683 7.40131 17.0287C8.91806 17.589 10.5753 17.6441 12.1259 17.1856C13.6765 16.7272 15.0374 15.7797 16.0055 14.4847C16.9737 13.1896 17.4973 11.6162 17.4982 9.99929V9.2331C17.4982 8.77194 17.8721 8.3981 18.3332 8.3981C18.7944 8.3981 19.1682 8.77194 19.1682 9.2331V9.99977C19.1671 11.9768 18.5269 13.9011 17.3431 15.4846C16.1593 17.0681 14.4954 18.2265 12.5994 18.7871C10.7035 19.3477 8.67712 19.2803 6.82256 18.5952C4.968 17.91 3.38461 16.6437 2.30853 14.9851C1.23244 13.3265 0.721332 11.3645 0.851417 9.39175C0.981502 7.41896 1.74582 5.54106 3.03037 4.03814C4.31492 2.53522 6.05088 1.48779 7.97935 1.05208C9.90782 0.616369 11.9255 0.815714 13.7314 1.62039C14.1526 1.80808 14.342 2.30171 14.1543 2.72294C13.9666 3.14418 13.4729 3.3335 13.0517 3.14581ZM18.9234 2.74237C19.2496 3.06829 19.2499 3.59699 18.9239 3.92324L10.5906 12.2649C10.434 12.4216 10.2216 12.5097 10.0001 12.5098C9.77856 12.5098 9.56609 12.4218 9.40945 12.2652L6.90945 9.7652C6.58336 9.43911 6.58336 8.91042 6.90945 8.58433C7.23554 8.25824 7.76423 8.25824 8.09032 8.58433L9.99959 10.4936L17.7425 2.74296C18.0684 2.41671 18.5971 2.41644 18.9234 2.74237Z" fill="#EB5509"/>
</svg>
