<svg width="24" height="24" viewBox="0 0 24 24" fill="none" xmlns="http://www.w3.org/2000/svg">
<path fill-rule="evenodd" clip-rule="evenodd" d="M4.26861 1.72193C5.42416 1.26228 6.95174 1 8.58832 1C10.2247 1 11.7528 1.26195 12.9086 1.72145C13.4836 1.95006 14.0164 2.24726 14.4218 2.62855C14.8152 2.99848 15.1522 3.51324 15.1744 4.15427C15.1759 4.17673 15.1766 4.1994 15.1766 4.22225L15.1766 8.61889C15.1774 8.63474 15.1778 8.65069 15.1778 8.66672C15.1778 8.68892 15.1774 8.71098 15.1766 8.73289L15.1766 11.2709C17.2459 10.6313 19.5933 11.1262 21.2322 12.7555C23.5893 15.0987 23.5893 18.9018 21.2322 21.245C18.8784 23.585 15.0631 23.585 12.7094 21.245C12.4313 20.9685 12.186 20.6717 11.9735 20.3594C10.9828 20.6279 9.82012 20.7779 8.58832 20.7779C6.95137 20.7779 5.42352 20.5159 4.26788 20.0564C3.69291 19.8278 3.16028 19.5306 2.7548 19.1495C2.34745 18.7666 2.00061 18.2288 2 17.5565L2 4.22042C2.00123 3.54843 2.34848 3.01112 2.75568 2.62863C3.16116 2.24777 3.69367 1.95062 4.26861 1.72193ZM4 6.61035V8.61902C4.0005 8.62965 4.00083 8.64033 4.001 8.65104C4.00926 8.67042 4.03802 8.72141 4.12526 8.80344C4.28531 8.95396 4.57093 9.13557 5.00715 9.30903C5.87389 9.65367 7.1399 9.88896 8.58944 9.88896C10.039 9.88896 11.305 9.65367 12.1717 9.30903C12.6079 9.13557 12.8936 8.95396 13.0536 8.80344C13.1369 8.7251 13.1669 8.67507 13.1766 8.65385V6.61035C13.0889 6.64963 12.9998 6.68717 12.9096 6.72302C11.7539 7.18256 10.2258 7.44449 8.58832 7.44449C6.95087 7.44449 5.42272 7.18256 4.26705 6.72302C4.17688 6.68717 4.08776 6.64963 4 6.61035ZM13.1685 4.22298C13.1544 4.19764 13.1221 4.15174 13.0517 4.08554C12.8917 3.93505 12.606 3.75343 12.1697 3.57995C11.3027 3.23527 10.0367 3 8.58832 3C7.14014 3 5.87468 3.2355 5.00782 3.58031C4.57155 3.75384 4.28552 3.93559 4.12497 4.08639C4.05563 4.15152 4.023 4.1972 4.00824 4.22312C4.02294 4.24893 4.05537 4.2943 4.12414 4.35897C4.2842 4.50949 4.56981 4.6911 5.00603 4.86456C5.87277 5.2092 7.13878 5.44449 8.58832 5.44449C10.0379 5.44449 11.3039 5.2092 12.1706 4.86456C12.6068 4.6911 12.8924 4.50949 13.0525 4.35897C13.1214 4.29418 13.1538 4.24876 13.1685 4.22298ZM13.1766 11.0553C13.0892 11.0944 13.0005 11.1318 12.9107 11.1675C11.755 11.627 10.2269 11.889 8.58944 11.889C6.95199 11.889 5.42384 11.627 4.26816 11.1675C4.17762 11.1315 4.08812 11.0938 4 11.0543V13.0636C4.0005 13.0742 4.00083 13.0849 4.001 13.0956C4.00925 13.115 4.03802 13.166 4.12526 13.248C4.28531 13.3985 4.5709 13.5801 5.00705 13.7536C5.87366 14.0982 7.13938 14.3335 8.58832 14.3335C9.85264 14.3335 10.9777 14.1535 11.8202 13.8782C12.0653 13.4784 12.3617 13.1011 12.7094 12.7555C12.8594 12.6063 13.0154 12.4666 13.1766 12.3364V11.0553ZM14.6791 13.7093C14.4821 13.8447 14.2947 13.9996 14.1194 14.1738C12.9018 15.3843 12.6282 17.1774 13.2988 18.6497C13.3274 18.6981 13.3523 18.7495 13.373 18.8038C13.5606 19.1725 13.8094 19.5185 14.1194 19.8266C15.6931 21.3911 18.2485 21.3911 19.8222 19.8266C21.3926 18.2654 21.3926 15.7351 19.8222 14.1738C18.4533 12.8129 16.3415 12.6358 14.7793 13.6425C14.7473 13.6667 14.7139 13.689 14.6791 13.7093ZM11.134 18.5081C10.9322 17.7313 10.8891 16.9221 11.0047 16.1315C10.2532 16.263 9.43574 16.3335 8.58832 16.3335C6.95139 16.3335 5.42351 16.0716 4.26798 15.612C4.17749 15.576 4.08806 15.5384 4 15.4989V17.5395C4.0084 17.5591 4.03735 17.6102 4.12459 17.6922C4.28486 17.8428 4.57064 18.0245 5.00687 18.1979C5.87365 18.5426 7.13939 18.7779 8.58832 18.7779C9.53604 18.7779 10.4037 18.6759 11.134 18.5081Z" fill="#878787"/>
</svg>
