<svg width="24" height="24" viewBox="0 0 24 24" fill="none" xmlns="http://www.w3.org/2000/svg">
<path d="M23.0346 5.52731C22.9491 4.99845 22.7053 4.51036 22.3372 4.13141C21.9691 3.75246 21.4951 3.50162 20.9818 3.41402L12.8573 2.05922C12.2415 1.95203 11.6101 1.99071 11.0109 2.17231C10.4118 2.35392 9.86064 2.67368 9.39927 3.10737L4.8801 7.28177C4.29566 7.83005 3.87405 8.5378 3.66418 9.32294C3.45432 10.1081 3.46479 10.9384 3.69439 11.7177L3.97403 12.6661C3.07406 12.8723 2.24558 13.3271 1.57755 13.9817C0.909515 14.6364 0.427168 15.4661 0.182297 16.3819C-0.0625737 17.2976 -0.0607193 18.2648 0.187661 19.1796C0.436041 20.0943 0.921566 20.9221 1.5921 21.574C2.26264 22.2259 3.09286 22.6774 3.99361 22.8798C4.89437 23.0823 5.83165 23.0282 6.70479 22.7232C7.57794 22.4183 8.35399 21.8741 8.9496 21.149C9.54521 20.424 9.93789 19.5455 10.0855 18.6079L17.3906 16.2147L22.5149 13.8502C23.0212 13.6157 23.4381 13.2154 23.7007 12.7115C23.9632 12.2076 24.0567 11.6284 23.9666 11.0641L23.0346 5.52731ZM5.09229 21.284C4.18674 21.284 3.31827 20.9134 2.67794 20.2537C2.03762 19.5939 1.67789 18.6992 1.67789 17.7662C1.67789 16.8332 2.03762 15.9384 2.67794 15.2787C3.31827 14.6189 4.18674 14.2483 5.09229 14.2483C5.14892 14.2483 5.19872 14.2684 5.25452 14.271L4.74669 14.5575C4.32083 14.7951 3.96543 15.1472 3.71826 15.5762C3.47109 16.0053 3.34139 16.4953 3.34295 16.9943C3.34364 17.217 3.36816 17.439 3.41607 17.6562C3.55945 18.2656 3.89791 18.8076 4.37685 19.1946C4.85579 19.5817 5.4473 19.7912 6.05599 19.7895C6.32803 19.7895 6.59855 19.7477 6.85862 19.6655L8.20223 19.2255C7.93071 19.8402 7.49297 20.3614 6.94141 20.7265C6.38986 21.0916 5.74787 21.2851 5.09229 21.284V21.284ZM21.8392 12.2807L16.7977 14.6145L6.36278 18.027C6.22448 18.0713 6.07876 18.0855 5.93483 18.0688C5.79091 18.0521 5.65193 18.0048 5.52667 17.9299C5.40593 17.8603 5.30034 17.766 5.21642 17.6527C5.13251 17.5394 5.07206 17.4096 5.03883 17.2713C5.01838 17.1803 5.00798 17.0873 5.00785 16.9939C5.00673 16.8037 5.05587 16.6167 5.14999 16.453C5.24411 16.2893 5.37967 16.1551 5.54216 16.0647L11.8701 12.4954C11.9694 12.4433 12.0576 12.3713 12.1294 12.2834C12.2012 12.1956 12.2551 12.0939 12.2881 11.9842C12.321 11.8745 12.3322 11.7591 12.3211 11.6449C12.3099 11.5307 12.2767 11.4199 12.2232 11.3192C12.1698 11.2184 12.0973 11.1298 12.0099 11.0584C11.9226 10.9871 11.8223 10.9345 11.7149 10.9039C11.6076 10.8732 11.4953 10.865 11.3848 10.8799C11.2743 10.8947 11.1678 10.9323 11.0717 10.9903L7.35496 13.0857C6.83294 12.8169 6.26922 12.6445 5.6894 12.5762L5.28683 11.2134C5.1493 10.7463 5.14307 10.2487 5.26885 9.7781C5.39464 9.30755 5.64729 8.88336 5.99752 8.55471L10.516 4.38014C10.7916 4.11921 11.1217 3.92694 11.4808 3.81814C11.8399 3.70934 12.2185 3.68692 12.5873 3.75259L20.7118 5.10739C20.8829 5.13706 21.0406 5.22123 21.1629 5.34808C21.2852 5.47493 21.3657 5.63808 21.3933 5.81457L22.3237 11.3422C22.3531 11.5317 22.3217 11.7258 22.2342 11.8952C22.1468 12.0646 22.0081 12.1999 21.8392 12.2807Z" fill="white"/>
</svg>
