<svg width="19" height="20" viewBox="0 0 19 20" fill="none" xmlns="http://www.w3.org/2000/svg">
<path fill-rule="evenodd" clip-rule="evenodd" d="M9.24275 0.5C10.0712 0.5 10.7427 1.17157 10.7427 2V10.2275L14.2291 6.82186C14.8217 6.24297 15.7713 6.25408 16.3502 6.84668C16.9291 7.43929 16.918 8.38897 16.3254 8.96786L10.2909 14.8627C9.7081 15.432 8.77739 15.432 8.19457 14.8627L2.16009 8.96786C1.56749 8.38897 1.55637 7.43929 2.13526 6.84668C2.71415 6.25408 3.66383 6.24297 4.25644 6.82186L7.74275 10.2275L7.74275 2C7.74275 1.17157 8.41432 0.5 9.24275 0.5ZM0.5 18C0.5 17.1716 1.17157 16.5 2 16.5H17C17.8284 16.5 18.5 17.1716 18.5 18C18.5 18.8284 17.8284 19.5 17 19.5H2C1.17157 19.5 0.5 18.8284 0.5 18Z" fill="white"/>
</svg>
