<svg width="20" height="16" viewBox="0 0 20 16" fill="none" xmlns="http://www.w3.org/2000/svg">
<path fill-rule="evenodd" clip-rule="evenodd" d="M1.7859 8.0002C1.8769 8.15744 1.99747 8.35769 2.14676 8.58886C2.53091 9.18366 3.09979 9.97465 3.83835 10.7624C5.33069 12.3543 7.41694 13.8319 10 13.8319C12.5831 13.8319 14.6693 12.3543 16.1617 10.7624C16.9002 9.97465 17.4691 9.18366 17.8533 8.58886C18.0026 8.35769 18.1231 8.15744 18.2141 8.0002C18.1231 7.84296 18.0026 7.64271 17.8533 7.41154C17.4691 6.81674 16.9002 6.02575 16.1617 5.23796C14.6693 3.64612 12.5831 2.16854 10 2.16854C7.41694 2.16854 5.33069 3.64612 3.83835 5.23796C3.09979 6.02575 2.53091 6.81674 2.14676 7.41154C1.99747 7.64271 1.8769 7.84296 1.7859 8.0002ZM19.1667 8.0002C19.9135 7.62678 19.9134 7.6265 19.9132 7.62619L19.9119 7.62351L19.909 7.61781L19.8995 7.59929C19.8916 7.58383 19.8804 7.56219 19.8659 7.53479C19.8369 7.47999 19.7948 7.40209 19.7398 7.30437C19.63 7.10906 19.4682 6.83393 19.2561 6.50553C18.833 5.85033 18.204 4.97465 17.38 4.09578C15.7474 2.35428 13.2503 0.498535 10 0.498535C6.74976 0.498535 4.25268 2.35428 2.62002 4.09578C1.79608 4.97465 1.16705 5.85033 0.743898 6.50553C0.531806 6.83393 0.370074 7.10906 0.260209 7.30437C0.205245 7.40209 0.163169 7.47999 0.134173 7.53479C0.119673 7.56219 0.108435 7.58383 0.100485 7.59929L0.0910238 7.61781L0.0881459 7.62351L0.0871708 7.62545C0.0870174 7.62576 0.0865054 7.62678 0.833352 8.0002L0.0865054 7.62678C-0.0310324 7.86185 -0.0310324 8.13855 0.0865054 8.37362L0.833352 8.0002C0.0865054 8.37362 0.086352 8.37332 0.0865054 8.37362L0.0881459 8.37689L0.0910238 8.38259L0.100485 8.40111C0.108435 8.41657 0.119673 8.43821 0.134173 8.46562C0.163169 8.52041 0.205245 8.59831 0.260209 8.69603C0.370074 8.89134 0.531806 9.16648 0.743898 9.49488C1.16705 10.1501 1.79608 11.0258 2.62002 11.9046C4.25268 13.6461 6.74976 15.5019 10 15.5019C13.2503 15.5019 15.7474 13.6461 17.38 11.9046C18.204 11.0258 18.833 10.1501 19.2561 9.49488C19.4682 9.16648 19.63 8.89134 19.7398 8.69603C19.7948 8.59831 19.8369 8.52041 19.8659 8.46562C19.8804 8.43821 19.8916 8.41657 19.8995 8.40111L19.909 8.38259L19.9119 8.37689L19.9129 8.37495C19.913 8.37465 19.9135 8.37362 19.1667 8.0002ZM19.1667 8.0002L19.9135 8.37362C20.0311 8.13855 20.0308 7.86127 19.9132 7.62619L19.1667 8.0002ZM10 6.3352C9.08046 6.3352 8.33502 7.08065 8.33502 8.0002C8.33502 8.91975 9.08046 9.6652 10 9.6652C10.9196 9.6652 11.665 8.91975 11.665 8.0002C11.665 7.08065 10.9196 6.3352 10 6.3352ZM6.66502 8.0002C6.66502 6.15833 8.15815 4.6652 10 4.6652C11.8419 4.6652 13.335 6.15833 13.335 8.0002C13.335 9.84207 11.8419 11.3352 10 11.3352C8.15815 11.3352 6.66502 9.84207 6.66502 8.0002Z" fill="#747474"/>
</svg>
