<svg width="32" height="32" viewBox="0 0 32 32" fill="none" xmlns="http://www.w3.org/2000/svg">
<path fill-rule="evenodd" clip-rule="evenodd" d="M5.98894 3.47917C6.64715 2.82095 7.53988 2.45117 8.47074 2.45117H18.51C18.7752 2.45117 19.0295 2.55653 19.2171 2.74407L26.7465 10.2735C26.934 10.461 27.0394 10.7154 27.0394 10.9806V26.0394C27.0394 26.9703 26.6696 27.863 26.0114 28.5212C25.3532 29.1794 24.4604 29.5492 23.5296 29.5492H8.47074C7.53988 29.5492 6.64715 29.1794 5.98894 28.5212C5.33072 27.863 4.96094 26.9703 4.96094 26.0394V5.96098C4.96094 5.03012 5.33072 4.13739 5.98894 3.47917ZM8.47074 4.45117C8.07032 4.45117 7.68629 4.61024 7.40315 4.89338C7.12001 5.17653 6.96094 5.56055 6.96094 5.96098V26.0394C6.96094 26.4398 7.12001 26.8239 7.40315 27.107C7.68629 27.3901 8.07032 27.5492 8.47074 27.5492H23.5296C23.93 27.5492 24.314 27.3901 24.5972 27.107C24.8803 26.8239 25.0394 26.4398 25.0394 26.0394V11.9806H18.51C17.9577 11.9806 17.51 11.5329 17.51 10.9806V4.45117H8.47074ZM19.51 5.86539L23.6252 9.98058H19.51V5.86539ZM9.98055 12.2355C9.98055 11.6832 10.4283 11.2355 10.9805 11.2355H13.4903C14.0426 11.2355 14.4903 11.6832 14.4903 12.2355C14.4903 12.7878 14.0426 13.2355 13.4903 13.2355H10.9805C10.4283 13.2355 9.98055 12.7878 9.98055 12.2355ZM9.98055 17.2551C9.98055 16.7028 10.4283 16.2551 10.9805 16.2551H21.0198C21.572 16.2551 22.0198 16.7028 22.0198 17.2551C22.0198 17.8074 21.572 18.2551 21.0198 18.2551H10.9805C10.4283 18.2551 9.98055 17.8074 9.98055 17.2551ZM9.98055 22.2747C9.98055 21.7224 10.4283 21.2747 10.9805 21.2747H21.0198C21.572 21.2747 22.0198 21.7224 22.0198 22.2747C22.0198 22.827 21.572 23.2747 21.0198 23.2747H10.9805C10.4283 23.2747 9.98055 22.827 9.98055 22.2747Z" fill="#EB5509"/>
</svg>
