<svg width="16" height="16" viewBox="0 0 16 16" fill="none" xmlns="http://www.w3.org/2000/svg">
<path fill-rule="evenodd" clip-rule="evenodd" d="M2.58579 1.25229C2.96086 0.877217 3.46957 0.666504 4 0.666504H8.66667C8.84348 0.666504 9.01305 0.736742 9.13807 0.861766L13.8047 5.52843C13.9298 5.65346 14 5.82303 14 5.99984V13.3332C14 13.8636 13.7893 14.3723 13.4142 14.7474C13.0391 15.1225 12.5304 15.3332 12 15.3332H4C3.46957 15.3332 2.96086 15.1225 2.58579 14.7474C2.21071 14.3723 2 13.8636 2 13.3332V2.6665C2 2.13607 2.21071 1.62736 2.58579 1.25229ZM4 1.99984C3.82319 1.99984 3.65362 2.07008 3.5286 2.1951C3.40357 2.32012 3.33333 2.48969 3.33333 2.6665V13.3332C3.33333 13.51 3.40357 13.6796 3.5286 13.8046C3.65362 13.9296 3.82319 13.9998 4 13.9998H12C12.1768 13.9998 12.3464 13.9296 12.4714 13.8046C12.5964 13.6796 12.6667 13.51 12.6667 13.3332V6.6665H8.66667C8.29848 6.6665 8 6.36803 8 5.99984V1.99984H4ZM9.33333 2.94265L11.7239 5.33317H9.33333V2.94265Z" fill="#EB5509"/>
</svg>
