<svg width="32" height="32" viewBox="0 0 32 32" fill="none" xmlns="http://www.w3.org/2000/svg">
<path fill-rule="evenodd" clip-rule="evenodd" d="M6.18686 4.45117C5.22826 4.45117 4.45117 5.22826 4.45117 6.18686V8.72568H8.72568V4.45117H6.18686ZM6.18686 2.45117C4.1237 2.45117 2.45117 4.1237 2.45117 6.18686V25.8135C2.45117 27.8767 4.1237 29.5492 6.18686 29.5492H25.8135C27.8767 29.5492 29.5492 27.8767 29.5492 25.8135V6.18686C29.5492 4.1237 27.8767 2.45117 25.8135 2.45117H6.18686ZM10.7257 4.45117V15.0002H21.2747V4.45117H10.7257ZM23.2747 4.45117V8.72568H27.5492V6.18686C27.5492 5.22826 26.7721 4.45117 25.8135 4.45117H23.2747ZM27.5492 10.7257H23.2747V15.0002H27.5492V10.7257ZM27.5492 17.0002H23.2747V21.2747H27.5492V17.0002ZM27.5492 23.2747H23.2747V27.5492H25.8135C26.7721 27.5492 27.5492 26.7721 27.5492 25.8135V23.2747ZM21.2747 27.5492V17.0002H10.7257V27.5492H21.2747ZM8.72568 27.5492V23.2747H4.45117V25.8135C4.45117 26.7721 5.22826 27.5492 6.18686 27.5492H8.72568ZM4.45117 21.2747H8.72568V17.0002H4.45117V21.2747ZM4.45117 15.0002H8.72568V10.7257H4.45117V15.0002Z" fill="#EB5509"/>
</svg>
