<svg width="20" height="20" viewBox="0 0 20 20" fill="none" xmlns="http://www.w3.org/2000/svg">
<path fill-rule="evenodd" clip-rule="evenodd" d="M1.66504 5.00004C1.66504 4.53888 2.03888 4.16504 2.50004 4.16504H17.5C17.9612 4.16504 18.335 4.53888 18.335 5.00004C18.335 5.4612 17.9612 5.83504 17.5 5.83504H2.50004C2.03888 5.83504 1.66504 5.4612 1.66504 5.00004ZM4.16504 10C4.16504 9.53888 4.53888 9.16504 5.00004 9.16504H15C15.4612 9.16504 15.835 9.53888 15.835 10C15.835 10.4612 15.4612 10.835 15 10.835H5.00004C4.53888 10.835 4.16504 10.4612 4.16504 10ZM6.66504 15C6.66504 14.5389 7.03888 14.165 7.50004 14.165H12.5C12.9612 14.165 13.335 14.5389 13.335 15C13.335 15.4612 12.9612 15.835 12.5 15.835H7.50004C7.03888 15.835 6.66504 15.4612 6.66504 15Z" fill="#747474"/>
</svg>
