<svg width="23" height="16" viewBox="0 0 23 16" fill="none" xmlns="http://www.w3.org/2000/svg">
<path fill-rule="evenodd" clip-rule="evenodd" d="M14.9195 0.535393C15.1098 0.459717 15.3271 0.50779 15.4677 0.656706L22.0788 7.65671C22.2608 7.8494 22.2608 8.15063 22.0788 8.34333L15.4677 15.3433C15.3271 15.4922 15.1098 15.5403 14.9195 15.4646C14.7292 15.389 14.6042 15.2049 14.6042 15V11.3824H6.15978C5.88363 11.3824 5.65978 11.1585 5.65978 10.8824C5.65978 10.6062 5.88363 10.3824 6.15978 10.3824H15.1042C15.3804 10.3824 15.6042 10.6062 15.6042 10.8824V13.7424L21.0276 8.00002L15.6042 2.25763V5.11767C15.6042 5.39381 15.3804 5.61767 15.1042 5.61767H6.15978C5.88363 5.61767 5.65978 5.39381 5.65978 5.11767C5.65978 4.84152 5.88363 4.61767 6.15978 4.61767H14.6042V1.00002C14.6042 0.795185 14.7292 0.611068 14.9195 0.535393ZM3.32644 7.17649C3.32644 6.90035 3.5503 6.67649 3.82644 6.67649H13.5487C13.8248 6.67649 14.0487 6.90035 14.0487 7.17649C14.0487 7.45263 13.8248 7.67649 13.5487 7.67649H3.82644C3.5503 7.67649 3.32644 7.45263 3.32644 7.17649ZM0.215332 9.23531C0.215332 8.95917 0.43919 8.73531 0.715332 8.73531H16.6598C16.9359 8.73531 17.1598 8.95917 17.1598 9.23531C17.1598 9.51145 16.9359 9.73531 16.6598 9.73531H0.715332C0.43919 9.73531 0.215332 9.51145 0.215332 9.23531Z" fill="#EB5509"/>
</svg>
