<svg width="18" height="18" viewBox="0 0 18 18" fill="none" xmlns="http://www.w3.org/2000/svg">
<path fill-rule="evenodd" clip-rule="evenodd" d="M10.8144 1.79318C11.4161 1.54386 12.0611 1.41553 12.7124 1.41553C13.3638 1.41553 14.0087 1.54386 14.6104 1.79318C15.212 2.04246 15.7586 2.4078 16.219 2.86834C16.2191 2.86843 16.219 2.86824 16.219 2.86834L15.6299 3.45779L15.0408 4.04712C15.3466 4.3528 15.5892 4.71574 15.7548 5.11521C15.9203 5.51467 16.0055 5.94283 16.0055 6.37523C16.0055 6.80763 15.9203 7.23579 15.7548 7.63525C15.5892 8.03472 15.3466 8.39766 15.0408 8.70334L8.99993 14.7442L2.95918 8.70347C2.34169 8.08599 1.99479 7.24849 1.99479 6.37523C1.99479 5.50197 2.34169 4.66447 2.95918 4.04699C3.57667 3.4295 4.41417 3.0826 5.28743 3.0826C6.16069 3.0826 6.99818 3.4295 7.61567 4.04699L8.41067 4.84199C8.73611 5.16742 9.26375 5.16742 9.58918 4.84199L10.3842 4.04699C10.6899 3.74116 11.0529 3.49842 11.4524 3.33291C11.8519 3.16739 12.28 3.08219 12.7124 3.08219C13.1448 3.08219 13.573 3.16739 13.9724 3.33291C14.3719 3.49842 14.7351 3.7413 15.0408 4.04712L15.6299 3.45779M16.2192 9.88199L9.58918 16.512C9.26375 16.8374 8.73611 16.8374 8.41067 16.512L1.78067 9.88199C0.850621 8.95194 0.328125 7.69052 0.328125 6.37523C0.328125 5.05994 0.850621 3.79852 1.78067 2.86847C2.71072 1.93842 3.97214 1.41593 5.28743 1.41593C6.60272 1.41593 7.86413 1.93842 8.79418 2.86847L8.20493 3.45773M8.79418 2.86847L8.99993 3.07422L9.20553 2.86861C9.20558 2.86857 9.20549 2.86866 9.20553 2.86861C9.66596 2.40801 10.2128 2.04248 10.8144 1.79318M16.219 2.86834C16.6796 3.32873 17.0452 3.87562 17.2945 4.47722C17.5438 5.07894 17.6721 5.7239 17.6721 6.37523C17.6721 7.02656 17.5438 7.67152 17.2945 8.27324C17.0452 8.8749 16.6798 9.42156 16.2192 9.88199" fill="#878787"/>
</svg>
