<svg width="15" height="16" viewBox="0 0 15 16" fill="none" xmlns="http://www.w3.org/2000/svg">
<path fill-rule="evenodd" clip-rule="evenodd" d="M7.5 2.375C4.3934 2.375 1.875 4.8934 1.875 8C1.875 11.1066 4.3934 13.625 7.5 13.625C10.6066 13.625 13.125 11.1066 13.125 8C13.125 4.8934 10.6066 2.375 7.5 2.375ZM0.625 8C0.625 4.20304 3.70304 1.125 7.5 1.125C11.297 1.125 14.375 4.20304 14.375 8C14.375 11.797 11.297 14.875 7.5 14.875C3.70304 14.875 0.625 11.797 0.625 8ZM6.875 5.5C6.875 5.15482 7.15482 4.875 7.5 4.875H7.50625C7.85143 4.875 8.13125 5.15482 8.13125 5.5C8.13125 5.84518 7.85143 6.125 7.50625 6.125H7.5C7.15482 6.125 6.875 5.84518 6.875 5.5ZM7.5 7.375C7.84518 7.375 8.125 7.65482 8.125 8V10.5C8.125 10.8452 7.84518 11.125 7.5 11.125C7.15482 11.125 6.875 10.8452 6.875 10.5V8C6.875 7.65482 7.15482 7.375 7.5 7.375Z" fill="#EB5509"/>
</svg>
