<svg width="25" height="24" viewBox="0 0 25 24" fill="none" xmlns="http://www.w3.org/2000/svg">
<path fill-rule="evenodd" clip-rule="evenodd" d="M5.4681 6.38231C4.23647 7.92199 3.5 9.87499 3.5 12C3.5 14.125 4.23647 16.078 5.4681 17.6177L8.3284 14.7574C7.80488 13.967 7.5 13.0191 7.5 12C7.5 10.9809 7.80488 10.033 8.3284 9.24261L5.4681 6.38231ZM6.88231 4.9681L9.74261 7.8284C10.533 7.30488 11.4809 7 12.5 7C13.5191 7 14.467 7.30488 15.2574 7.8284L18.1177 4.9681C16.578 3.73647 14.625 3 12.5 3C10.375 3 8.42199 3.73647 6.88231 4.9681ZM19.5319 6.38231L16.6716 9.24261C17.1951 10.033 17.5 10.9809 17.5 12C17.5 13.0191 17.1951 13.967 16.6716 14.7574L19.5319 17.6177C20.7635 16.078 21.5 14.125 21.5 12C21.5 9.87499 20.7635 7.92199 19.5319 6.38231ZM18.1177 19.0319L15.2574 16.1716C14.467 16.6951 13.5191 17 12.5 17C11.4809 17 10.533 16.6951 9.74261 16.1716L6.88231 19.0319C8.42199 20.2635 10.375 21 12.5 21C14.625 21 16.578 20.2635 18.1177 19.0319ZM1.5 12C1.5 5.92487 6.42487 1 12.5 1C18.5751 1 23.5 5.92487 23.5 12C23.5 18.0751 18.5751 23 12.5 23C6.42487 23 1.5 18.0751 1.5 12ZM12.5 9C10.8431 9 9.5 10.3431 9.5 12C9.5 13.6569 10.8431 15 12.5 15C14.1569 15 15.5 13.6569 15.5 12C15.5 10.3431 14.1569 9 12.5 9Z" fill="#878787"/>
</svg>
