<svg width="20" height="20" viewBox="0 0 20 20" fill="none" xmlns="http://www.w3.org/2000/svg">
<path fill-rule="evenodd" clip-rule="evenodd" d="M4.16671 3.33504C3.94613 3.33504 3.7346 3.42266 3.57863 3.57863C3.42266 3.7346 3.33504 3.94613 3.33504 4.16671V15.8334C3.33504 16.0539 3.42266 16.2655 3.57863 16.4214C3.7346 16.5774 3.94613 16.665 4.16671 16.665H7.50004C7.9612 16.665 8.33504 17.0389 8.33504 17.5C8.33504 17.9612 7.9612 18.335 7.50004 18.335H4.16671C3.50322 18.335 2.86691 18.0715 2.39776 17.6023C1.92861 17.1332 1.66504 16.4969 1.66504 15.8334V4.16671C1.66504 3.50322 1.92861 2.86691 2.39776 2.39776C2.86691 1.92861 3.50322 1.66504 4.16671 1.66504H7.50004C7.9612 1.66504 8.33504 2.03888 8.33504 2.50004C8.33504 2.9612 7.9612 3.33504 7.50004 3.33504H4.16671ZM12.7429 5.24294C13.069 4.91685 13.5977 4.91685 13.9238 5.24294L18.0905 9.4096C18.4166 9.73569 18.4166 10.2644 18.0905 10.5905L13.9238 14.7571C13.5977 15.0832 13.069 15.0832 12.7429 14.7571C12.4169 14.4311 12.4169 13.9024 12.7429 13.5763L15.4842 10.835H7.50004C7.03888 10.835 6.66504 10.4612 6.66504 10C6.66504 9.53888 7.03888 9.16504 7.50004 9.16504H15.4842L12.7429 6.42381C12.4169 6.09772 12.4169 5.56903 12.7429 5.24294Z" fill="#878787"/>
</svg>
