<svg width="20" height="20" viewBox="0 0 20 20" fill="none" xmlns="http://www.w3.org/2000/svg">
<path fill-rule="evenodd" clip-rule="evenodd" d="M2.58849 4.62829L9.99967 9.81612L17.4109 4.62829C17.273 4.35577 16.9896 4.16667 16.6663 4.16667H3.33301C3.00971 4.16667 2.72631 4.35577 2.58849 4.62829ZM17.4997 6.60055L10.4776 11.516C10.1906 11.7169 9.80872 11.7169 9.52179 11.516L2.49967 6.60055V15C2.49967 15.4564 2.87658 15.8333 3.33301 15.8333H16.6663C17.1228 15.8333 17.4997 15.4564 17.4997 15V6.60055ZM0.833008 5C0.833008 3.6231 1.9561 2.5 3.33301 2.5H16.6663C18.0432 2.5 19.1663 3.6231 19.1663 5V15C19.1663 16.3769 18.0432 17.5 16.6663 17.5H3.33301C1.9561 17.5 0.833008 16.3769 0.833008 15V5Z" fill="#878787"/>
</svg>
