<svg width="32" height="32" viewBox="0 0 32 32" fill="none" xmlns="http://www.w3.org/2000/svg">
<path fill-rule="evenodd" clip-rule="evenodd" d="M4.73405 4.73405C5.39227 4.07584 6.285 3.70605 7.21586 3.70605H10.9806C11.5328 3.70605 11.9806 4.15377 11.9806 4.70605C11.9806 5.25834 11.5328 5.70605 10.9806 5.70605H7.21586C6.81543 5.70605 6.43141 5.86512 6.14827 6.14827C5.86512 6.43141 5.70605 6.81543 5.70605 7.21586V10.9806C5.70605 11.5328 5.25834 11.9806 4.70605 11.9806C4.15377 11.9806 3.70605 11.5328 3.70605 10.9806V7.21586C3.70605 6.285 4.07584 5.39227 4.73405 4.73405ZM20.0198 4.70605C20.0198 4.15377 20.4675 3.70605 21.0198 3.70605H24.7845C25.7153 3.70605 26.6081 4.07584 27.2663 4.73405C27.9245 5.39227 28.2943 6.285 28.2943 7.21586V10.9806C28.2943 11.5328 27.8466 11.9806 27.2943 11.9806C26.742 11.9806 26.2943 11.5328 26.2943 10.9806V7.21586C26.2943 6.81543 26.1352 6.43141 25.8521 6.14827C25.5689 5.86512 25.1849 5.70605 24.7845 5.70605H21.0198C20.4675 5.70605 20.0198 5.25834 20.0198 4.70605ZM4.70605 20.0198C5.25834 20.0198 5.70605 20.4675 5.70605 21.0198V24.7845C5.70605 25.1849 5.86512 25.5689 6.14827 25.8521C6.43141 26.1352 6.81543 26.2943 7.21586 26.2943H10.9806C11.5328 26.2943 11.9806 26.742 11.9806 27.2943C11.9806 27.8466 11.5328 28.2943 10.9806 28.2943H7.21586C6.285 28.2943 5.39227 27.9245 4.73405 27.2663C4.07584 26.6081 3.70605 25.7153 3.70605 24.7845V21.0198C3.70605 20.4675 4.15377 20.0198 4.70605 20.0198ZM27.2943 20.0198C27.8466 20.0198 28.2943 20.4675 28.2943 21.0198V24.7845C28.2943 25.7153 27.9245 26.6081 27.2663 27.2663C26.6081 27.9245 25.7153 28.2943 24.7845 28.2943H21.0198C20.4675 28.2943 20.0198 27.8466 20.0198 27.2943C20.0198 26.742 20.4675 26.2943 21.0198 26.2943H24.7845C25.1849 26.2943 25.5689 26.1352 25.8521 25.8521C26.1352 25.5689 26.2943 25.1849 26.2943 24.7845V21.0198C26.2943 20.4675 26.742 20.0198 27.2943 20.0198Z" fill="#EB5509"/>
</svg>
