<svg width="23" height="23" viewBox="0 0 23 23" fill="none" xmlns="http://www.w3.org/2000/svg">
<path fill-rule="evenodd" clip-rule="evenodd" d="M23 11.5C23 17.8513 17.8513 23 11.5 23C5.14873 23 0 17.8513 0 11.5C0 5.14873 5.14873 0 11.5 0C17.8513 0 23 5.14873 23 11.5ZM11.4989 2.75749C6.67063 2.75749 2.75651 6.6716 2.75651 11.4999C2.75651 16.3282 6.67063 20.2423 11.4989 20.2423C16.3272 20.2423 20.2414 16.3282 20.2414 11.4999C20.2414 6.6716 16.3272 2.75749 11.4989 2.75749ZM1.42318 11.4999C1.42318 5.93522 5.93425 1.42415 11.4989 1.42415C17.0636 1.42415 21.5747 5.93522 21.5747 11.4999C21.5747 17.0646 17.0636 21.5757 11.4989 21.5757C5.93425 21.5757 1.42318 17.0646 1.42318 11.4999ZM8.0013 10.9166C7.67914 10.9166 7.41797 11.1778 7.41797 11.5C7.41797 11.8221 7.67914 12.0833 8.0013 12.0833H15.0013C15.3235 12.0833 15.5846 11.8221 15.5846 11.5C15.5846 11.1778 15.3235 10.9166 15.0013 10.9166H8.0013Z" fill="#B69538"/>
</svg>
