<svg width="20" height="20" viewBox="0 0 20 20" fill="none" xmlns="http://www.w3.org/2000/svg">
<path d="M9.35742 0.975848C7.57636 2.33413 5.77828 3.70543 3.99218 5.06755L2.09765 5.07924C1.00281 5.08624 -9.99992e-06 5.93371 0 7.08132V13.1614C-9.99992e-06 14.3072 0.99768 15.155 2.0918 15.1692L3.99805 15.1946C5.78436 16.5148 7.57183 17.8429 9.35742 19.1595C10.4092 19.8757 11.998 19.1972 11.998 17.8509V2.28252C11.998 0.638989 10.4506 0.0803583 9.35742 0.975848V0.975848ZM9.99805 3.00124V17.1458L4.92773 13.3958C4.75924 13.2706 4.55561 13.2015 4.3457 13.1985C3.63572 13.1935 2.59353 13.1733 2 13.1612V7.08113C2.58427 7.08152 3.6119 7.06992 4.33984 7.06542C4.55666 7.06342 4.7671 6.99192 4.93945 6.86034L9.99805 3.00124Z" fill="black"/>
<path d="M14.2928 7.36019C13.9024 7.7507 13.9024 8.38375 14.2928 8.77426L15.5858 10.0672L14.2928 11.3582C13.9024 11.7487 13.9024 12.3818 14.2928 12.7723C14.6833 13.1627 15.3164 13.1627 15.7069 12.7723L16.9998 11.4793L18.2928 12.7723C18.6833 13.1627 19.3164 13.1627 19.7069 12.7723C20.0973 12.3818 20.0973 11.7487 19.7069 11.3582L18.4139 10.0672L19.7069 8.77426C20.0973 8.38375 20.0973 7.7507 19.7069 7.36019C19.2515 6.9048 18.6539 6.99911 18.2928 7.36019L16.9998 8.65316L15.7069 7.36019C15.2668 6.92011 14.6809 6.97208 14.2928 7.36019Z" fill="black"/>
</svg>
