<svg width="20" height="20" viewBox="0 0 20 20" fill="none" xmlns="http://www.w3.org/2000/svg">
<path fill-rule="evenodd" clip-rule="evenodd" d="M10.0001 2.50154C5.85891 2.50154 2.50179 5.85866 2.50179 9.99988C2.50179 14.1411 5.85891 17.4982 10.0001 17.4982C14.1413 17.4982 17.4985 14.1411 17.4985 9.99988C17.4985 5.85866 14.1413 2.50154 10.0001 2.50154ZM0.831787 9.99988C0.831787 4.93635 4.93659 0.831543 10.0001 0.831543C15.0637 0.831543 19.1685 4.93635 19.1685 9.99988C19.1685 15.0634 15.0637 19.1682 10.0001 19.1682C4.93659 19.1682 0.831787 15.0634 0.831787 9.99988ZM7.93945 5.93035C8.21096 5.78504 8.5404 5.80096 8.79663 5.97178L13.7966 9.30511C14.0289 9.45998 14.1685 9.72069 14.1685 9.99988C14.1685 10.2791 14.0289 10.5398 13.7966 10.6946L8.79663 14.028C8.5404 14.1988 8.21096 14.2147 7.93945 14.0694C7.66795 13.9241 7.49845 13.6412 7.49845 13.3332V6.66654C7.49845 6.3586 7.66795 6.07565 7.93945 5.93035ZM9.16845 8.22676V11.773L11.8281 9.99988L9.16845 8.22676Z" fill="white"/>
</svg>
