<svg width="16" height="16" viewBox="0 0 16 16" fill="none" xmlns="http://www.w3.org/2000/svg">
<path fill-rule="evenodd" clip-rule="evenodd" d="M7.71533 1.5C4.12548 1.5 1.21533 4.41015 1.21533 8C1.21533 11.5899 4.12548 14.5 7.71533 14.5C11.3052 14.5 14.2153 11.5899 14.2153 8C14.2153 4.41015 11.3052 1.5 7.71533 1.5ZM0.215332 8C0.215332 3.85786 3.5732 0.5 7.71533 0.5C11.8575 0.5 15.2153 3.85786 15.2153 8C15.2153 12.1421 11.8575 15.5 7.71533 15.5C3.5732 15.5 0.215332 12.1421 0.215332 8ZM6.0794 4.75916C6.24198 4.67215 6.43925 4.68169 6.59268 4.78397L10.7927 7.58397C10.9318 7.67671 11.0153 7.83282 11.0153 8C11.0153 8.16718 10.9318 8.32329 10.7927 8.41603L6.59268 11.216C6.43925 11.3183 6.24198 11.3278 6.0794 11.2408C5.91682 11.1538 5.81533 10.9844 5.81533 10.8V5.2C5.81533 5.0156 5.91682 4.84617 6.0794 4.75916ZM6.81533 6.13426V9.86574L9.61394 8L6.81533 6.13426Z" fill="#EB5509"/>
</svg>
