<svg width="48" height="48" viewBox="0 0 48 48" fill="none" xmlns="http://www.w3.org/2000/svg">
<path fill-rule="evenodd" clip-rule="evenodd" d="M24 5C13.5066 5 5 13.5066 5 24C5 34.4934 13.5066 43 24 43C34.4934 43 43 34.4934 43 24C43 13.5066 34.4934 5 24 5ZM3 24C3 12.402 12.402 3 24 3C35.598 3 45 12.402 45 24C45 35.598 35.598 45 24 45C12.402 45 3 35.598 3 24ZM24 15C24.5523 15 25 15.4477 25 16V23H32C32.5523 23 33 23.4477 33 24C33 24.5523 32.5523 25 32 25H25V32C25 32.5523 24.5523 33 24 33C23.4477 33 23 32.5523 23 32V25H16C15.4477 25 15 24.5523 15 24C15 23.4477 15.4477 23 16 23H23V16C23 15.4477 23.4477 15 24 15Z" fill="#EB5509"/>
</svg>
