<svg width="23" height="23" viewBox="0 0 23 23" fill="none" xmlns="http://www.w3.org/2000/svg">
<path fill-rule="evenodd" clip-rule="evenodd" d="M23 11.5C23 17.8513 17.8513 23 11.5 23C5.14873 23 0 17.8513 0 11.5C0 5.14873 5.14873 0 11.5 0C17.8513 0 23 5.14873 23 11.5ZM11.4976 2.75753C6.66933 2.75753 2.75521 6.67164 2.75521 11.5C2.75521 16.3283 6.66933 20.2424 11.4976 20.2424C16.3259 20.2424 20.2401 16.3283 20.2401 11.5C20.2401 6.67164 16.3259 2.75753 11.4976 2.75753ZM1.42188 11.5C1.42188 5.93527 5.93295 1.42419 11.4976 1.42419C17.0623 1.42419 21.5734 5.93527 21.5734 11.5C21.5734 17.0646 17.0623 21.5757 11.4976 21.5757C5.93295 21.5757 1.42188 17.0646 1.42188 11.5ZM12.0846 7.99996C12.0846 7.67779 11.8235 7.41663 11.5013 7.41663C11.1791 7.41663 10.918 7.67779 10.918 7.99996V10.9166H8.0013C7.67914 10.9166 7.41797 11.1778 7.41797 11.5C7.41797 11.8221 7.67914 12.0833 8.0013 12.0833H10.918V15C10.918 15.3221 11.1791 15.5833 11.5013 15.5833C11.8235 15.5833 12.0846 15.3221 12.0846 15V12.0833H15.0013C15.3235 12.0833 15.5846 11.8221 15.5846 11.5C15.5846 11.1778 15.3235 10.9166 15.0013 10.9166H12.0846V7.99996Z" fill="#B69538"/>
</svg>
