<svg width="20" height="20" viewBox="0 0 20 20" fill="none" xmlns="http://www.w3.org/2000/svg">
<path fill-rule="evenodd" clip-rule="evenodd" d="M9.16667 3.5C6.03705 3.5 3.5 6.03705 3.5 9.16667C3.5 12.2963 6.03705 14.8333 9.16667 14.8333C10.6891 14.8333 12.0713 14.2329 13.0895 13.256C13.1136 13.2255 13.1397 13.1961 13.1679 13.1679C13.1961 13.1397 13.2255 13.1136 13.256 13.0895C14.2329 12.0713 14.8333 10.6891 14.8333 9.16667C14.8333 6.03705 12.2963 3.5 9.16667 3.5ZM15.2489 13.8347C16.2426 12.5419 16.8333 10.9233 16.8333 9.16667C16.8333 4.93248 13.4008 1.5 9.16667 1.5C4.93248 1.5 1.5 4.93248 1.5 9.16667C1.5 13.4008 4.93248 16.8333 9.16667 16.8333C10.9233 16.8333 12.5419 16.2426 13.8347 15.2489L16.7929 18.2071C17.1834 18.5976 17.8166 18.5976 18.2071 18.2071C18.5976 17.8166 18.5976 17.1834 18.2071 16.7929L15.2489 13.8347Z" fill="#BEBEBE"/>
</svg>
