<svg width="21" height="20" viewBox="0 0 21 20" fill="none" xmlns="http://www.w3.org/2000/svg">
<path fill-rule="evenodd" clip-rule="evenodd" d="M15.5 2.50154C14.5805 2.50154 13.835 3.24699 13.835 4.16654C13.835 4.45565 13.9087 4.72755 14.0383 4.96448C14.0468 4.97735 14.055 4.99053 14.0629 5.00401C14.0707 5.0174 14.0781 5.03091 14.0851 5.04453C14.3789 5.51701 14.9027 5.83154 15.5 5.83154C16.4196 5.83154 17.165 5.0861 17.165 4.16654C17.165 3.24699 16.4196 2.50154 15.5 2.50154ZM13.1315 6.51434C13.7358 7.12397 14.5738 7.50154 15.5 7.50154C17.3419 7.50154 18.835 6.00841 18.835 4.16654C18.835 2.32467 17.3419 0.831543 15.5 0.831543C13.6582 0.831543 12.165 2.32467 12.165 4.16654C12.165 4.48043 12.2084 4.78419 12.2895 5.07215L7.8686 7.65208C7.26428 7.04245 6.42625 6.66488 5.50004 6.66488C3.65817 6.66488 2.16504 8.15801 2.16504 9.99988C2.16504 11.8417 3.65817 13.3349 5.50004 13.3349C6.42643 13.3349 7.26459 12.9572 7.86893 12.3473L12.2905 14.9239C12.2088 15.213 12.165 15.518 12.165 15.8332C12.165 17.6751 13.6582 19.1682 15.5 19.1682C17.3419 19.1682 18.835 17.6751 18.835 15.8332C18.835 13.9913 17.3419 12.4982 15.5 12.4982C14.5752 12.4982 13.7383 12.8747 13.1342 13.4827L8.71074 10.905C8.79172 10.6172 8.83504 10.3136 8.83504 9.99988C8.83504 9.68599 8.79168 9.38223 8.71061 9.09426L13.1315 6.51434ZM6.915 9.12189C6.92199 9.13551 6.92938 9.14902 6.93719 9.16241C6.94506 9.17589 6.95325 9.18907 6.96174 9.20194C7.09135 9.43887 7.16504 9.71077 7.16504 9.99988C7.16504 10.289 7.09135 10.5609 6.96174 10.7978C6.95315 10.8108 6.94488 10.8242 6.93693 10.8378C6.92922 10.851 6.92191 10.8644 6.91501 10.8779C6.62121 11.3503 6.09736 11.6649 5.50004 11.6649C4.58048 11.6649 3.83504 10.9194 3.83504 9.99988C3.83504 9.08032 4.58048 8.33488 5.50004 8.33488C6.09736 8.33488 6.62121 8.64941 6.915 9.12189ZM14.0142 15.0811C14.0348 15.0541 14.0539 15.0254 14.0715 14.9953C14.0883 14.9664 14.1032 14.9369 14.1162 14.907C14.415 14.4615 14.9233 14.1682 15.5 14.1682C16.4196 14.1682 17.165 14.9137 17.165 15.8332C17.165 16.7528 16.4196 17.4982 15.5 17.4982C14.5805 17.4982 13.835 16.7528 13.835 15.8332C13.835 15.5626 13.8996 15.307 14.0142 15.0811Z" fill="white"/>
</svg>
