<svg width="32" height="32" viewBox="0 0 32 32" fill="none" xmlns="http://www.w3.org/2000/svg">
<path fill-rule="evenodd" clip-rule="evenodd" d="M16.0002 2.45117C16.3808 2.45117 16.7285 2.66724 16.8969 3.00855L20.5421 10.3933L28.6939 11.5848C29.0704 11.6399 29.3831 11.9039 29.5005 12.2659C29.6179 12.6279 29.5196 13.0251 29.247 13.2907L23.3493 19.035L24.7411 27.1504C24.8055 27.5255 24.6512 27.9047 24.3432 28.1285C24.0353 28.3522 23.627 28.3817 23.2901 28.2045L16.0002 24.3708L8.71038 28.2045C8.37346 28.3817 7.96517 28.3522 7.65719 28.1285C7.34921 27.9047 7.19497 27.5255 7.25932 27.1504L8.65119 19.035L2.75347 13.2907C2.48085 13.0251 2.38258 12.6279 2.49995 12.2659C2.61733 11.9039 2.93001 11.6399 3.30657 11.5848L11.4583 10.3933L15.1035 3.00855C15.272 2.66724 15.6196 2.45117 16.0002 2.45117ZM16.0002 5.71043L13.0193 11.7495C12.8737 12.0443 12.5926 12.2488 12.2672 12.2963L5.59961 13.2709L10.4234 17.9693C10.6593 18.1991 10.767 18.5302 10.7113 18.8547L9.57311 25.4911L15.5348 22.3559C15.8262 22.2027 16.1743 22.2027 16.4657 22.3559L22.4273 25.4911L21.2891 18.8547C21.2335 18.5302 21.3411 18.1991 21.577 17.9693L26.4008 13.2709L19.7332 12.2963C19.4079 12.2488 19.1267 12.0443 18.9812 11.7495L16.0002 5.71043Z" fill="#EB5509"/>
</svg>
