<svg width="15" height="16" viewBox="0 0 15 16" fill="none" xmlns="http://www.w3.org/2000/svg">
<path fill-rule="evenodd" clip-rule="evenodd" d="M7.5 1.5C3.91015 1.5 1 4.41015 1 8C1 11.5899 3.91015 14.5 7.5 14.5C11.0899 14.5 14 11.5899 14 8C14 4.41015 11.0899 1.5 7.5 1.5ZM0 8C0 3.85786 3.35786 0.5 7.5 0.5C11.6421 0.5 15 3.85786 15 8C15 12.1421 11.6421 15.5 7.5 15.5C3.35786 15.5 0 12.1421 0 8ZM7.5 3.3C7.77614 3.3 8 3.52386 8 3.8V7.69098L10.5236 8.95279C10.7706 9.07628 10.8707 9.37662 10.7472 9.62361C10.6237 9.8706 10.3234 9.97071 10.0764 9.84721L7.27639 8.44721C7.107 8.36252 7 8.18939 7 8V3.8C7 3.52386 7.22386 3.3 7.5 3.3Z" fill="#EB5509"/>
</svg>
