<svg width="32" height="32" viewBox="0 0 32 32" fill="none" xmlns="http://www.w3.org/2000/svg">
<path fill-rule="evenodd" clip-rule="evenodd" d="M9.01857 2.74407C9.4091 2.35354 10.0423 2.35354 10.4328 2.74407L16.0002 8.31147L21.5676 2.74407C21.9581 2.35354 22.5913 2.35354 22.9818 2.74407C23.3723 3.13459 23.3723 3.76775 22.9818 4.15828L18.4144 8.72568H26.0394C27.9778 8.72568 29.5492 10.2971 29.5492 12.2355V26.0394C29.5492 27.9778 27.9778 29.5492 26.0394 29.5492H5.96098C4.02256 29.5492 2.45117 27.9778 2.45117 26.0394V12.2355C2.45117 10.2971 4.02256 8.72568 5.96098 8.72568H13.586L9.01857 4.15828C8.62805 3.76775 8.62805 3.13459 9.01857 2.74407ZM5.96098 10.7257C5.12713 10.7257 4.45117 11.4016 4.45117 12.2355V26.0394C4.45117 26.8732 5.12713 27.5492 5.96098 27.5492H26.0394C26.8732 27.5492 27.5492 26.8732 27.5492 26.0394V12.2355C27.5492 11.4016 26.8732 10.7257 26.0394 10.7257H5.96098Z" fill="#EB5509"/>
</svg>
