<svg width="20" height="20" viewBox="0 0 20 20" fill="none" xmlns="http://www.w3.org/2000/svg">
<g clip-path="url(#clip0_8195_364077)">
<path fill-rule="evenodd" clip-rule="evenodd" d="M7.21946 1.67403C8.35237 1.63229 9.48 1.84792 10.5176 2.30471C11.5551 2.7615 12.4757 3.44756 13.2099 4.31132C13.8028 5.00876 14.2618 5.80739 14.566 6.6669H15C16.1109 6.66763 17.1905 7.03828 18.0673 7.72034C18.9441 8.40241 19.5688 9.35705 19.8428 10.4336C20.1168 11.5101 20.0245 12.6473 19.5805 13.6655C19.1364 14.6838 18.3659 15.5252 17.3906 16.0569C16.9865 16.2772 16.4803 16.1282 16.26 15.7241C16.0398 15.32 16.1887 14.8139 16.5928 14.5936C17.2431 14.2391 17.7567 13.6782 18.0527 12.9993C18.3488 12.3205 18.4103 11.5624 18.2276 10.8447C18.045 10.127 17.6285 9.49057 17.0439 9.03586C16.4595 8.58126 15.7404 8.33418 15 8.33356C14.9999 8.33356 15.0002 8.33356 15 8.33356M15 8.33356H13.95C13.5701 8.33356 13.2383 8.07663 13.1432 7.70882C12.9225 6.85514 12.5112 6.06261 11.9401 5.39079C11.369 4.71898 10.653 4.18538 9.84602 3.8301C9.03902 3.47481 8.16198 3.3071 7.28083 3.33957C6.39968 3.37203 5.53735 3.60383 4.75868 4.01753C3.98001 4.43124 3.30526 5.01608 2.78515 5.7281C2.26505 6.44011 1.91312 7.26077 1.75583 8.12838C1.59854 8.99598 1.63999 9.88796 1.87704 10.7372C2.1141 11.5865 2.54061 12.371 3.12449 13.0317C3.42926 13.3766 3.39675 13.9032 3.05188 14.208C2.70701 14.5128 2.18037 14.4803 1.8756 14.1354C1.12489 13.2859 0.57653 12.2773 0.271741 11.1853C-0.0330478 10.0934 -0.086331 8.94657 0.115897 7.83107C0.318126 6.71558 0.770603 5.66045 1.43931 4.745C2.10802 3.82955 2.97556 3.07761 3.97671 2.5457C4.97785 2.0138 6.08656 1.71577 7.21946 1.67403M9.41079 9.41097C9.73623 9.08554 10.2639 9.08554 10.5893 9.41097L13.9226 12.7443C14.2481 13.0697 14.2481 13.5974 13.9226 13.9228C13.5972 14.2483 13.0696 14.2483 12.7441 13.9228L10.8334 12.0121V17.5002C10.8334 17.9605 10.4603 18.3336 10 18.3336C9.53981 18.3336 9.16672 17.9605 9.16672 17.5002V12.0121L7.25597 13.9228C6.93053 14.2483 6.4029 14.2483 6.07746 13.9228C5.75202 13.5974 5.75202 13.0697 6.07746 12.7443L9.41079 9.41097Z" fill="#747474"/>
</g>
<defs>
<clipPath id="clip0_8195_364077">
<rect width="20" height="20" fill="white"/>
</clipPath>
</defs>
</svg>
