<svg width="32" height="32" viewBox="0 0 32 32" fill="none" xmlns="http://www.w3.org/2000/svg">
<path fill-rule="evenodd" clip-rule="evenodd" d="M11.6081 5.70605C9.38808 5.70605 7.58845 7.50569 7.58845 9.72566C7.58845 11.9456 9.38809 13.7453 11.6081 13.7453C13.828 13.7453 15.6277 11.9456 15.6277 9.72566C15.6277 7.50569 13.828 5.70605 11.6081 5.70605ZM5.58845 9.72566C5.58845 6.40112 8.28352 3.70605 11.6081 3.70605C14.9326 3.70605 17.6277 6.40112 17.6277 9.72566C17.6277 13.0502 14.9326 15.7453 11.6081 15.7453C8.28352 15.7453 5.58845 13.0502 5.58845 9.72566ZM30.5112 11.5284C30.9018 11.9189 30.9018 12.552 30.5112 12.9426L25.4916 17.9622C25.1011 18.3527 24.4679 18.3527 24.0774 17.9622L21.5676 15.4524C21.1771 15.0619 21.1771 14.4287 21.5676 14.0382C21.9581 13.6476 22.5913 13.6476 22.9818 14.0382L24.7845 15.8409L29.097 11.5284C29.4875 11.1378 30.1207 11.1378 30.5112 11.5284ZM2.95939 20.528C4.08829 19.3991 5.6194 18.7649 7.2159 18.7649H16.0002C17.5967 18.7649 19.1278 19.3991 20.2567 20.528C21.3856 21.6569 22.0198 23.188 22.0198 24.7845V27.2943C22.0198 27.8466 21.5721 28.2943 21.0198 28.2943C20.4675 28.2943 20.0198 27.8466 20.0198 27.2943V24.7845C20.0198 23.7184 19.5963 22.696 18.8425 21.9422C18.0887 21.1884 17.0663 20.7649 16.0002 20.7649H7.2159C6.14983 20.7649 5.12743 21.1884 4.37361 21.9422C3.61978 22.696 3.19629 23.7184 3.19629 24.7845V27.2943C3.19629 27.8466 2.74857 28.2943 2.19629 28.2943C1.644 28.2943 1.19629 27.8466 1.19629 27.2943V24.7845C1.19629 23.188 1.8305 21.6569 2.95939 20.528Z" fill="#EB5509"/>
</svg>
