<svg width="24" height="24" viewBox="0 0 24 24" fill="none" xmlns="http://www.w3.org/2000/svg">
<path d="M19.5696 12.6295C19.3778 12.6295 19.1938 12.5522 19.0582 12.4145C18.9225 12.2769 18.8463 12.0902 18.8463 11.8956V9.78192C18.8735 9.36603 18.7381 8.95602 18.4695 8.64065C18.2009 8.32528 17.8208 8.12992 17.4113 8.09687H4.89495C4.70312 8.09687 4.51914 8.01955 4.38349 7.88192C4.24784 7.74428 4.17163 7.55761 4.17163 7.36297C4.17163 7.16832 4.24784 6.98165 4.38349 6.84402C4.51914 6.70638 4.70312 6.62906 4.89495 6.62906H17.4113C18.2059 6.65814 18.9567 7.00577 19.4991 7.5957C20.0414 8.18564 20.3311 8.96974 20.3045 9.77605V11.8897C20.3053 11.9876 20.2868 12.0846 20.2501 12.1751C20.2133 12.2656 20.1592 12.3477 20.0907 12.4167C20.0222 12.4856 19.9408 12.5399 19.8513 12.5765C19.7619 12.613 19.6661 12.631 19.5696 12.6295Z" fill="white"/>
<path d="M17.4113 22H4.89495C4.10034 21.9709 3.34953 21.6233 2.80716 21.0334C2.26478 20.4434 1.97512 19.6593 2.00168 18.853V5.60746C2.00168 5.41282 2.07788 5.22614 2.21353 5.08851C2.34918 4.95088 2.53316 4.87355 2.725 4.87355C2.91683 4.87355 3.10081 4.95088 3.23646 5.08851C3.37211 5.22614 3.44832 5.41282 3.44832 5.60746V18.853C3.42121 19.2683 3.55675 19.6776 3.82547 19.9921C4.0942 20.3065 4.47438 20.5006 4.88338 20.5322H17.4113C17.8203 20.5006 18.2004 20.3065 18.4692 19.9921C18.7379 19.6776 18.8734 19.2683 18.8463 18.853V17.3617C18.8463 17.1671 18.9225 16.9804 19.0582 16.8428C19.1938 16.7051 19.3778 16.6278 19.5696 16.6278C19.7615 16.6278 19.9455 16.7051 20.0811 16.8428C20.2168 16.9804 20.293 17.1671 20.293 17.3617V18.853C20.3196 19.6574 20.0315 20.4397 19.4916 21.0293C18.9517 21.6189 18.2038 21.9679 17.4113 22Z" fill="white"/>
<path d="M17.1161 8.09687C16.9263 8.0969 16.7441 8.02119 16.6087 7.88608C16.4734 7.75098 16.3959 7.56731 16.3928 7.37471V5.74837C16.3793 5.40002 16.2305 5.07124 15.9791 4.83368C15.7276 4.59613 15.3938 4.46906 15.0503 4.48018H4.63456C4.33928 4.46906 4.05168 4.57712 3.83477 4.78071C3.61785 4.98429 3.48929 5.2668 3.47725 5.56636C3.48929 5.86592 3.61785 6.14843 3.83477 6.35202C4.05168 6.5556 4.33928 6.66367 4.63456 6.65254H10.9998C11.1916 6.65254 11.3756 6.72987 11.5112 6.8675C11.6469 7.00513 11.7231 7.19181 11.7231 7.38645C11.7231 7.58109 11.6469 7.76777 11.5112 7.9054C11.3756 8.04304 11.1916 8.12036 10.9998 8.12036H4.6172C4.28007 8.12579 3.9452 8.0637 3.63176 7.93762C3.31832 7.81155 3.03248 7.62397 2.79059 7.38564C2.54871 7.1473 2.35554 6.86289 2.22215 6.5487C2.08876 6.2345 2.01778 5.89669 2.01325 5.55462C2.02543 4.8658 2.30644 4.21002 2.79463 3.73119C3.28282 3.25237 3.93829 2.98963 4.6172 3.00062H15.033C15.3954 2.99284 15.7557 3.05787 16.0933 3.19197C16.4308 3.32607 16.7389 3.52658 16.9997 3.78198C17.2606 4.03737 17.4691 4.34259 17.6132 4.68007C17.7573 5.01754 17.8342 5.38061 17.8395 5.74837V7.37471C17.8364 7.56731 17.7589 7.75098 17.6236 7.88608C17.4882 8.02119 17.306 8.0969 17.1161 8.09687ZM20.0384 18.078H16.0283C15.245 18.0937 14.4876 17.7934 13.9223 17.243C13.3571 16.6926 13.0302 15.9371 13.0135 15.1424V14.0797C13.0302 13.285 13.3571 12.5294 13.9223 11.979C14.4876 11.4286 15.245 11.1283 16.0283 11.1441H20.0789C20.3319 11.1448 20.5823 11.1962 20.8158 11.2951C21.0493 11.3941 21.2613 11.5387 21.4397 11.7208C21.6181 11.9029 21.7594 12.1189 21.8555 12.3564C21.9517 12.5939 22.0008 12.8483 22 13.1051V16.1522C21.9909 16.6713 21.7792 17.1655 21.4115 17.5265C21.0438 17.8875 20.55 18.0859 20.0384 18.078ZM16.0283 12.6177C15.6296 12.6018 15.2408 12.7466 14.947 13.0205C14.6532 13.2945 14.4782 13.6752 14.4601 14.0797V15.1717C14.4782 15.5762 14.6532 15.9569 14.947 16.2309C15.2408 16.5048 15.6296 16.6496 16.0283 16.6337H20.0384C20.1647 16.6337 20.286 16.5831 20.3759 16.493C20.4658 16.4029 20.5171 16.2805 20.5186 16.1522V13.1051C20.5152 12.9879 20.4675 12.8765 20.3855 12.7939C20.3421 12.7478 20.2901 12.7111 20.2324 12.6859C20.1748 12.6607 20.1127 12.6475 20.0499 12.6471L16.0283 12.6177Z" fill="white"/>
<path d="M16.4275 15.3596C16.827 15.3596 17.1509 15.031 17.1509 14.6257C17.1509 14.2204 16.827 13.8918 16.4275 13.8918C16.0281 13.8918 15.7042 14.2204 15.7042 14.6257C15.7042 15.031 16.0281 15.3596 16.4275 15.3596Z" fill="white"/>
</svg>
