<svg width="1020" height="340" viewBox="0 0 1020 340" fill="none" xmlns="http://www.w3.org/2000/svg">
<mask id="mask0_7835_318369" style="mask-type:alpha" maskUnits="userSpaceOnUse" x="0" y="0" width="1020" height="340">
<rect width="1020" height="340" rx="8" fill="#F5BB9E"/>
</mask>
<g mask="url(#mask0_7835_318369)">
<path d="M991.498 237.476C988.194 247.015 982.591 255.291 976.839 263.549C970.881 274.082 964.315 282.817 956.885 292.28C956.061 299.89 968.937 280.054 970.105 279.569C990.522 253.408 995.735 239.211 998.316 238.591C1005.43 233.478 1009.68 242.991 1008.56 248.503C1005.99 274.53 981.028 304.444 970.041 316.526C956.784 332.138 941.201 345.614 923.84 356.48C901.083 374.36 868.043 388.053 841.756 370.762C819.629 359.487 814.445 350.812 806.888 333.999C792.754 303.814 788.718 280.58 791.064 253.789C792.062 221.772 825.235 161.656 837.336 198.708C840.16 213.117 829.386 222.308 828.775 230.643C825.486 256.003 834.804 272.86 858.449 254.206C872.834 243.992 882.722 229.875 892.131 215.371C918.67 177.834 918.956 143.505 939.857 150.722C957.562 159.675 918.934 230.214 913.443 238.412C904.806 258.07 924.175 236.803 926.331 231.919C941.636 211.145 948.179 190.141 957.402 172.551C971.018 145.891 985.453 152.666 985.685 165.16C983.406 184.701 974.432 202.329 967.307 220.404C959.925 237.79 948.064 251.576 938.756 267.59C938.433 277.074 952.57 257.031 953.517 255.822C964.271 242.065 971.163 226.097 978.316 210.391C986.76 193.722 997.951 192.172 999.356 209.958C998.6 219.617 994.265 228.363 991.498 237.476Z" fill="#F8CEB9"/>
<path d="M894.456 162.59C895.422 164.807 898.799 172.382 899.125 173.226C899.309 173.648 899.399 174.105 899.39 174.566C899.381 175.026 899.273 175.479 899.074 175.894C898.433 177.05 896.557 178.068 895.407 178.661C893.725 179.525 891.935 180.156 890.267 181.043C887.741 182.384 884.959 183.372 882.276 184.378C881.137 184.802 880.582 184.742 879.854 183.461C876.628 177.96 874.443 173.071 871.306 167.527C871.056 166.977 870.664 166.503 870.171 166.154C869.246 165.63 868.014 166.028 867.128 166.418C863.614 167.976 860.109 169.466 856.578 171C855.03 171.675 853.026 172.516 851.351 171.8C850.369 171.38 849.89 170.071 849.499 169.128C848.194 165.996 846.918 162.853 845.611 159.723C845.026 158.327 844.195 157.038 843.742 155.582C843.547 154.949 843.336 154.108 843.483 153.432C843.63 152.756 844.353 152.058 844.969 151.678C846.008 151.03 847.276 150.703 848.418 150.285C849.653 149.814 850.886 149.288 852.098 148.734C854.506 147.64 856.844 146.461 859.285 145.475C860.082 145.153 860.04 144.785 859.698 144.036C858.014 140.317 856.453 136.541 854.806 132.806C853.753 130.428 853.016 128.022 852.158 125.579C852.043 125.295 851.968 124.997 851.935 124.693C851.812 122.712 854.613 122.14 855.963 121.435C858.255 120.238 860.897 119.442 863.33 118.577C865.073 117.954 866.914 117.378 868.574 116.565C869.228 116.244 872.432 114.793 873.048 115.745C874.931 118.643 875.986 121.722 877.592 124.789C879.296 128.048 880.9 131.358 882.428 134.692C882.939 135.807 883.578 136.083 884.729 135.494C888.527 133.553 892.598 132.237 896.48 130.48C897.793 129.886 899.848 128.764 901.293 128.91C903.26 129.124 903.718 131.429 904.383 132.927C906.27 137.174 908.685 141.592 909.718 146.134C909.861 146.637 909.899 147.163 909.83 147.681C909.661 148.561 908.708 149.313 907.963 149.693C906.838 150.268 905.598 150.53 904.46 151.065C903.157 151.677 901.723 152.042 900.388 152.581C899.163 153.076 897.9 153.54 896.648 154.003C896.096 154.226 895.541 154.429 895.003 154.667C894.383 154.939 893.735 155.055 893.185 155.458C892.636 155.862 892.183 156.355 892.219 157.053C892.238 157.462 892.897 158.881 893.017 159.206C893.334 159.99 893.653 160.78 893.994 161.555L894.456 162.59Z" fill="#F8CEB9"/>
<path d="M88.936 142.649C84.5794 141.105 79.8447 140.987 75.4174 142.314C70.99 143.641 67.0999 146.342 64.3101 150.028C52.8952 165.118 28.9938 159.457 25.5526 140.848C24.7113 136.301 22.4441 132.139 19.0796 128.966C15.715 125.794 11.428 123.776 6.8399 123.204C-11.9334 120.86 -18.9852 97.3252 -4.59435 85.0415C-1.07786 82.0404 1.39179 77.9972 2.4567 73.4977C3.52162 68.9982 3.12649 64.2762 1.32856 60.016C-6.03216 42.5803 10.8198 24.7083 28.6499 31.0337C33.0065 32.5789 37.7415 32.6967 42.169 31.37C46.5966 30.0433 50.4867 27.3411 53.2758 23.6547C64.6908 8.5641 88.5921 14.2258 92.0315 32.8349C92.873 37.3824 95.1403 41.5438 98.5048 44.7162C101.869 47.8886 106.156 49.9071 110.744 50.4791C129.516 52.8251 136.568 76.3603 122.178 88.6416C118.664 91.6437 116.197 95.6871 115.133 100.186C114.07 104.685 114.467 109.406 116.265 113.665C123.615 131.099 106.767 148.976 88.936 142.649Z" fill="#F8CEB9"/>
<path d="M156.947 353.12C154.388 350.445 151.045 348.655 147.401 348.007C143.757 347.36 140.002 347.889 136.678 349.519C123.076 356.194 108.027 343.53 112.274 328.983C113.312 325.429 113.191 321.635 111.929 318.154C110.667 314.673 108.329 311.684 105.255 309.622C92.6761 301.178 96.118 281.808 110.836 278.212C114.432 277.334 117.656 275.333 120.039 272.5C122.423 269.666 123.842 266.147 124.093 262.453C125.115 247.333 143.607 240.628 154.076 251.579C156.634 254.254 159.977 256.045 163.622 256.693C167.266 257.34 171.021 256.81 174.345 255.18C187.947 248.505 202.996 261.169 198.747 275.715C197.709 279.27 197.83 283.063 199.092 286.544C200.355 290.026 202.692 293.014 205.767 295.077C218.343 303.522 214.901 322.892 200.185 326.487C196.59 327.366 193.368 329.368 190.986 332.202C188.604 335.035 187.186 338.554 186.937 342.247C185.907 357.363 167.415 364.072 156.947 353.12Z" fill="#F8CEB9"/>
<path d="M65.9118 126.691L47.136 47.6934L51.1784 46.7326L69.9543 125.73L65.9118 126.691ZM70.1421 67.2634C68.9562 63.8287 66.738 61.4 63.4875 59.9774C60.237 58.5548 56.5236 58.3398 52.3474 59.3324C49.4056 60.0316 46.9333 61.1517 44.9305 62.6927C42.9483 64.2288 41.5321 66.0433 40.682 68.1363C39.8476 70.2038 39.6993 72.369 40.2372 74.6319C40.6332 76.2983 41.3404 77.6734 42.3587 78.7571C43.377 79.8409 44.6006 80.6911 46.0295 81.3078C47.4741 81.8991 49.0128 82.3375 50.6455 82.6232C52.2989 82.904 53.9381 83.0795 55.5631 83.1497L62.6833 83.4787C64.8314 83.555 67.0162 83.7856 69.2376 84.1704C71.459 84.5553 73.5594 85.208 75.5387 86.1286C77.5337 87.0237 79.2601 88.2978 80.718 89.9509C82.1916 91.5785 83.2413 93.7089 83.8671 96.3422C84.669 99.716 84.5159 102.958 83.4078 106.069C82.2997 109.179 80.2984 111.915 77.4039 114.277C74.5045 116.618 70.7712 118.331 66.2042 119.417C61.9046 120.438 58.002 120.616 54.4965 119.95C50.9861 119.263 48.025 117.869 45.6132 115.769C43.2014 113.669 41.4864 110.979 40.468 107.7L46.3928 106.292C47.1901 108.733 48.5142 110.646 50.365 112.031C52.2158 113.417 54.4008 114.289 56.92 114.646C59.4344 114.983 62.111 114.815 64.95 114.14C68.0976 113.392 70.7707 112.202 72.9695 110.571C75.1839 108.915 76.7656 106.974 77.7147 104.749C78.6795 102.498 78.8612 100.107 78.2597 97.5771C77.7512 95.4376 76.7704 93.7798 75.3172 92.6038C73.8591 91.4072 72.015 90.5523 69.7848 90.0391C67.5752 89.521 65.0735 89.1919 62.2799 89.0517L54.1915 88.6268C48.8816 88.324 44.548 87.1914 41.191 85.229C37.8339 83.2666 35.6737 80.2591 34.7105 76.2063C33.9037 72.8119 34.0999 69.6137 35.299 66.6119C36.5139 63.5847 38.5034 60.9818 41.2676 58.8034C44.0474 56.5996 47.3814 55.0356 51.2696 54.1115C55.1989 53.1776 58.8467 53.0713 62.2131 53.7926C65.5795 54.5139 68.448 55.9295 70.8187 58.0394C73.205 60.1238 74.8412 62.756 75.7274 65.9359L70.1421 67.2634Z" fill="#FADBCB"/>
<path d="M146.159 333.734L161.211 270.48L164.448 271.25L149.396 334.505L146.159 333.734ZM170.607 292.766C170.997 289.883 170.286 287.347 168.475 285.158C166.663 282.969 164.086 281.476 160.742 280.681C158.386 280.12 156.215 280.03 154.227 280.41C152.256 280.793 150.589 281.58 149.227 282.77C147.885 283.948 146.998 285.443 146.567 287.255C146.25 288.589 146.26 289.827 146.597 290.969C146.935 292.111 147.503 293.16 148.302 294.116C149.122 295.06 150.064 295.928 151.129 296.721C152.21 297.518 153.319 298.234 154.455 298.87L159.428 301.672C160.936 302.501 162.415 303.453 163.865 304.529C165.315 305.605 166.581 306.829 167.665 308.201C168.768 309.56 169.544 311.094 169.99 312.801C170.457 314.496 170.44 316.398 169.938 318.506C169.295 321.208 168.017 323.471 166.103 325.296C164.189 327.12 161.772 328.355 158.851 329.001C155.934 329.629 152.647 329.508 148.99 328.638C145.547 327.819 142.693 326.539 140.427 324.799C138.164 323.042 136.549 320.978 135.582 318.607C134.614 316.236 134.358 313.695 134.811 310.983L139.556 312.112C139.246 314.144 139.503 315.99 140.327 317.648C141.151 319.306 142.399 320.717 144.071 321.881C145.748 323.028 147.722 323.872 149.996 324.413C152.516 325.013 154.856 325.126 157.016 324.752C159.197 324.366 161.028 323.548 162.508 322.299C164.009 321.038 165.001 319.394 165.483 317.368C165.891 315.655 165.787 314.116 165.172 312.751C164.561 311.37 163.55 310.094 162.141 308.923C160.748 307.756 159.077 306.619 157.13 305.512L151.5 302.292C147.813 300.161 145.122 297.789 143.429 295.176C141.736 292.562 141.276 289.633 142.048 286.388C142.695 283.67 143.988 281.454 145.927 279.74C147.887 278.013 150.248 276.869 153.01 276.308C155.792 275.735 158.74 275.818 161.853 276.559C164.999 277.308 167.646 278.547 169.793 280.276C171.94 282.005 173.481 284.052 174.416 286.415C175.37 288.765 175.592 291.237 175.079 293.831L170.607 292.766Z" fill="#FADBCB"/>
</g>
</svg>
