<svg width="54" height="76" viewBox="0 0 54 76" fill="none" xmlns="http://www.w3.org/2000/svg">
<path d="M39.312 0H0V75.6H54V14.688L39.312 0Z" fill="white"/>
<path d="M39.3115 14.688H53.9995L39.3115 0V14.688Z" fill="#D0D0D0"/>
<path d="M54 58.104H0V75.6H54V58.104Z" fill="#EB5509"/>
<path d="M17.3338 43.5242C17.3338 43.5242 29.3068 27.3308 26.4053 16.3104C24.2453 8.10236 20.1413 15.0144 22.5173 22.7904C24.8933 30.5664 32.9704 38.6752 38.2853 40.5024C45.1973 42.8784 48.4373 38.5584 41.5253 36.1824C37.3142 34.7347 21.7106 33.3131 12.1493 41.5824C4.15778 48.4922 11.5018 51.5162 17.3338 43.5242Z" stroke="#EB5509" stroke-width="1.96364" stroke-miterlimit="10"/>
<path d="M16.8428 70.9122V63.1812H19.3479C20.2969 63.1812 20.9156 63.2199 21.2042 63.2975C21.6474 63.4133 22.0183 63.6655 22.3168 64.054C22.6154 64.4425 22.7648 64.9444 22.7651 65.5598C22.7651 66.0341 22.679 66.4331 22.5068 66.7566C22.3521 67.0596 22.1269 67.321 21.85 67.5188C21.6071 67.6932 21.332 67.8177 21.0407 67.8851C20.6677 67.9592 20.128 67.996 19.4215 67.9957H18.4041V70.9122H16.8428ZM18.4041 64.4913V66.6852H19.2584C19.8732 66.6852 20.2847 66.6448 20.4927 66.564C20.6904 66.4904 20.8607 66.3577 20.9803 66.184C21.0995 66.0065 21.1611 65.7965 21.1566 65.5827C21.1566 65.3018 21.074 65.0698 20.9089 64.8867C20.7445 64.7046 20.5232 64.5838 20.2811 64.5442C20.0951 64.5089 19.7207 64.4913 19.1579 64.4913H18.4041Z" fill="white"/>
<path d="M24.041 63.1812H26.894C27.5373 63.1812 28.0276 63.2304 28.365 63.3288C28.8102 63.4575 29.2127 63.7034 29.5305 64.0407C29.8646 64.3998 30.1166 64.8273 30.2689 65.2935C30.4378 65.7873 30.5222 66.3963 30.5219 67.1207C30.5219 67.7567 30.4428 68.3051 30.2847 68.7659C30.0911 69.3283 29.8151 69.7838 29.4569 70.1324C29.1862 70.3969 28.8205 70.6026 28.3597 70.7495C28.0153 70.8586 27.5548 70.9131 26.9782 70.9131H24.041V63.1812ZM25.6019 64.4913V69.6118H26.7675C27.203 69.6118 27.5176 69.5872 27.7113 69.5382C27.9448 69.4848 28.1614 69.3742 28.3416 69.2164C28.5082 69.065 28.6445 68.8163 28.7503 68.4701C28.8561 68.1239 28.9088 67.6519 28.9085 67.0542C28.9085 66.4564 28.8558 65.9977 28.7503 65.6779C28.6448 65.3582 28.4971 65.1084 28.3072 64.9285C28.1048 64.7427 27.8546 64.6168 27.5847 64.5649C27.3667 64.5155 26.9395 64.4908 26.3033 64.4908L25.6019 64.4913Z" fill="white"/>
<path d="M31.8574 70.9122V63.1812H37.1574V64.4913H33.4184V66.3211H36.6456V67.629H33.4184V70.9144L31.8574 70.9122Z" fill="white"/>
</svg>
