<svg width="41" height="41" viewBox="0 0 41 41" fill="none" xmlns="http://www.w3.org/2000/svg">
<g filter="url(#filter0_dd_8168_294617)">
<path d="M23.456 28.9311C21.9611 27.6413 21.0997 26.5748 20.1265 25.6182C19.8025 25.2941 19.5773 25.252 19.2853 25.6301C17.5798 27.8152 15.5649 29.733 13.8357 31.8981C13.4374 32.397 13.1619 32.1672 12.8406 31.8825C11.2212 30.4462 9.545 29.0813 7.85052 27.7365C6.9534 27.0224 6.9241 26.9931 7.6116 26.0896C9.17791 24.029 10.8193 22.0379 12.5092 20.077C12.8607 19.6687 13.3807 19.0535 12.901 18.5757C11.7558 17.4305 10.6023 16.2972 9.47543 15.1336C9.05341 14.6988 8.6552 14.2054 8.20205 13.809C7.74891 13.4126 7.22803 13.1005 7.04952 12.4734C6.74742 11.3822 7.89996 10.5775 8.54626 9.8891C9.4681 8.90867 10.3616 7.90169 11.2431 6.88464C12.1915 5.78978 12.6145 5.72936 13.7917 6.60268C15.5695 7.92091 17.1257 9.46984 18.6353 11.0801C19.8363 12.3654 19.5507 12.1786 20.6346 11.1167C21.4228 10.3413 22.1991 9.55222 22.9919 8.78142C23.4011 8.38321 23.8103 7.98316 24.2396 7.60692C24.6104 7.28011 24.9234 6.8645 25.307 6.56515C25.4276 6.46181 25.5719 6.39006 25.7271 6.35635C25.8822 6.32263 26.0433 6.32801 26.1959 6.37199C26.3834 6.45406 26.5505 6.57625 26.6856 6.72993C27.5553 7.57885 28.4241 8.42868 29.2919 9.27943C29.7203 9.70785 30.1799 10.1125 30.5955 10.5537C30.9141 10.8924 31.055 11.2623 31.4084 11.5827C31.6006 11.7566 31.7718 11.9827 31.7325 12.2326C31.6991 12.3731 31.6319 12.5032 31.5366 12.6116C30.5128 13.9753 29.3365 15.2174 28.0304 16.3136C27.4354 16.8171 26.9191 17.3994 26.3506 17.944C26.0165 18.2635 26.0778 18.486 26.4074 18.8027C28.2208 20.543 30.0087 22.3107 31.802 24.0711C31.9067 24.1867 32.0045 24.3084 32.095 24.4354C32.4474 24.8757 32.4895 25.2236 32.008 25.6758C30.1791 27.3777 28.4865 29.2203 26.9456 31.1868C26.422 31.8605 26.3973 31.8578 25.8013 31.2728C24.8694 30.3574 23.9522 29.4273 23.456 28.9311Z" fill="#F94A3D"/>
<path d="M10.4089 2.74933L3.74561 9.41259C3.33382 9.82438 3.33382 10.492 3.74561 10.9038L28.5911 35.7493C29.0029 36.1611 29.6706 36.1611 30.0824 35.7493L36.7456 29.0861C37.1574 28.6743 37.1574 28.0066 36.7456 27.5948L11.9001 2.74933C11.4883 2.33754 10.8207 2.33754 10.4089 2.74933Z" fill="#C10A0A"/>
<path d="M11.5044 5.3455C11.4465 5.40548 11.372 5.4468 11.2905 5.46415C11.209 5.4815 11.1241 5.47409 11.0468 5.44288C10.9695 5.41166 10.9033 5.35806 10.8567 5.28895C10.8101 5.21984 10.7852 5.13838 10.7852 5.05502C10.7852 4.97165 10.8101 4.89019 10.8567 4.82108C10.9033 4.75197 10.9695 4.69837 11.0468 4.66715C11.1241 4.63594 11.209 4.62853 11.2905 4.64588C11.372 4.66323 11.4465 4.70455 11.5044 4.76453C11.579 4.84285 11.6206 4.94686 11.6206 5.05502C11.6206 5.16317 11.579 5.26718 11.5044 5.3455Z" fill="#F94A3D"/>
<path d="M9.78099 7.05931C9.70048 7.11389 9.60347 7.13872 9.50665 7.12952C9.40982 7.12032 9.31922 7.07766 9.25045 7.00888C9.18167 6.9401 9.13901 6.84951 9.12981 6.75268C9.1206 6.65585 9.14543 6.55884 9.20002 6.47834C9.28052 6.42375 9.37753 6.39892 9.47436 6.40813C9.57119 6.41733 9.66178 6.45999 9.73056 6.52877C9.79934 6.59754 9.84199 6.68814 9.8512 6.78497C9.8604 6.8818 9.83557 6.9788 9.78099 7.05931Z" fill="#F94A3D"/>
<path d="M8.05619 8.78398C7.9983 8.84396 7.92381 8.88528 7.84227 8.90263C7.76073 8.91998 7.67587 8.91257 7.59857 8.88135C7.52127 8.85014 7.45507 8.79653 7.40844 8.72743C7.36182 8.65832 7.33691 8.57686 7.33691 8.49349C7.33691 8.41013 7.36182 8.32867 7.40844 8.25956C7.45507 8.19045 7.52127 8.13685 7.59857 8.10563C7.67587 8.07441 7.76073 8.06701 7.84227 8.08436C7.92381 8.10171 7.9983 8.14302 8.05619 8.20301C8.13145 8.28098 8.17351 8.38512 8.17351 8.49349C8.17351 8.60186 8.13145 8.706 8.05619 8.78398Z" fill="#F94A3D"/>
<path d="M6.34233 10.5066C6.28444 10.5666 6.20994 10.6079 6.1284 10.6253C6.04686 10.6426 5.962 10.6352 5.8847 10.604C5.80741 10.5728 5.7412 10.5192 5.69458 10.4501C5.64796 10.381 5.62305 10.2995 5.62305 10.2161C5.62305 10.1328 5.64796 10.0513 5.69458 9.98221C5.7412 9.91311 5.80741 9.8595 5.8847 9.82829C5.962 9.79707 6.04686 9.78966 6.1284 9.80701C6.20994 9.82436 6.28444 9.86568 6.34233 9.92566C6.41692 10.004 6.45852 10.108 6.45852 10.2161C6.45852 10.3243 6.41692 10.4283 6.34233 10.5066Z" fill="#F94A3D"/>
<path d="M13.2938 7.12278C13.2592 7.17378 13.2138 7.2165 13.1608 7.2479C13.1078 7.27931 13.0485 7.29861 12.9872 7.30444C12.9258 7.31027 12.864 7.30248 12.806 7.28163C12.748 7.26077 12.6954 7.22737 12.6518 7.1838C12.6082 7.14024 12.5748 7.08759 12.554 7.02962C12.5331 6.97164 12.5253 6.90978 12.5312 6.84844C12.537 6.78711 12.5563 6.72782 12.5877 6.67481C12.6191 6.62181 12.6618 6.57639 12.7128 6.54182C12.7933 6.48723 12.8903 6.4624 12.9872 6.4716C13.084 6.48081 13.1746 6.52347 13.2434 6.59224C13.3122 6.66102 13.3548 6.75161 13.364 6.84844C13.3732 6.94527 13.3484 7.04228 13.2938 7.12278Z" fill="#F94A3D"/>
<path d="M11.2718 8.97038C11.5028 8.97038 11.6901 8.7831 11.6901 8.55209C11.6901 8.32107 11.5028 8.13379 11.2718 8.13379C11.0408 8.13379 10.8535 8.32107 10.8535 8.55209C10.8535 8.7831 11.0408 8.97038 11.2718 8.97038Z" fill="#F94A3D"/>
<path d="M9.84556 10.574C9.81098 10.6249 9.76557 10.6677 9.71256 10.6991C9.65955 10.7305 9.60027 10.7498 9.53893 10.7556C9.4776 10.7614 9.41573 10.7537 9.35776 10.7328C9.29979 10.7119 9.24714 10.6785 9.20357 10.635C9.16001 10.5914 9.1266 10.5388 9.10575 10.4808C9.08489 10.4228 9.0771 10.3609 9.08293 10.2996C9.08876 10.2383 9.10807 10.179 9.13947 10.126C9.17087 10.073 9.2136 10.0276 9.26459 9.99299C9.34509 9.9384 9.4421 9.91357 9.53893 9.92278C9.63576 9.93198 9.72635 9.97464 9.79513 10.0434C9.86391 10.1122 9.90657 10.2028 9.91577 10.2996C9.92497 10.3964 9.90015 10.4935 9.84556 10.574Z" fill="#F94A3D"/>
<path d="M8.11967 12.2967C8.06178 12.3567 7.98728 12.398 7.90575 12.4153C7.82421 12.4327 7.73935 12.4253 7.66205 12.394C7.58475 12.3628 7.51854 12.3092 7.47192 12.2401C7.4253 12.171 7.40039 12.0895 7.40039 12.0062C7.40039 11.9228 7.4253 11.8414 7.47192 11.7723C7.51854 11.7031 7.58475 11.6495 7.66205 11.6183C7.73935 11.5871 7.82421 11.5797 7.90575 11.5971C7.98728 11.6144 8.06178 11.6557 8.11967 11.7157C8.19492 11.7937 8.23698 11.8978 8.23698 12.0062C8.23698 12.1146 8.19492 12.2187 8.11967 12.2967Z" fill="#F94A3D"/>
<path d="M14.7835 9.03386C15.0146 9.03386 15.2018 8.84658 15.2018 8.61556C15.2018 8.38454 15.0146 8.19727 14.7835 8.19727C14.5525 8.19727 14.3652 8.38454 14.3652 8.61556C14.3652 8.84658 14.5525 9.03386 14.7835 9.03386Z" fill="#F94A3D"/>
<path d="M13.3573 10.6345C13.3227 10.6855 13.2773 10.7282 13.2243 10.7596C13.1713 10.791 13.112 10.8103 13.0506 10.8162C12.9893 10.822 12.9275 10.8142 12.8695 10.7933C12.8115 10.7725 12.7589 10.7391 12.7153 10.6955C12.6717 10.652 12.6383 10.5993 12.6175 10.5413C12.5966 10.4834 12.5888 10.4215 12.5947 10.3602C12.6005 10.2988 12.6198 10.2395 12.6512 10.1865C12.6826 10.1335 12.7253 10.0881 12.7763 10.0535C12.8568 9.99895 12.9538 9.97412 13.0506 9.98332C13.1475 9.99253 13.2381 10.0352 13.3068 10.104C13.3756 10.1727 13.4183 10.2633 13.4275 10.3602C13.4367 10.457 13.4119 10.554 13.3573 10.6345Z" fill="#F94A3D"/>
<path d="M11.6314 12.3601C11.5735 12.4201 11.499 12.4614 11.4175 12.4788C11.3359 12.4961 11.2511 12.4887 11.1738 12.4575C11.0965 12.4263 11.0303 12.3727 10.9836 12.3036C10.937 12.2345 10.9121 12.153 10.9121 12.0697C10.9121 11.9863 10.937 11.9048 10.9836 11.8357C11.0303 11.7666 11.0965 11.713 11.1738 11.6818C11.2511 11.6506 11.3359 11.6432 11.4175 11.6605C11.499 11.6779 11.5735 11.7192 11.6314 11.7792C11.7066 11.8572 11.7487 11.9613 11.7487 12.0697C11.7487 12.178 11.7066 12.2822 11.6314 12.3601Z" fill="#F94A3D"/>
<path d="M9.61263 14.2048C9.84365 14.2048 10.0309 14.0175 10.0309 13.7865C10.0309 13.5554 9.84365 13.3682 9.61263 13.3682C9.38161 13.3682 9.19434 13.5554 9.19434 13.7865C9.19434 14.0175 9.38161 14.2048 9.61263 14.2048Z" fill="#F94A3D"/>
<path d="M16.8687 10.7019C16.8108 10.7619 16.7363 10.8032 16.6548 10.8206C16.5732 10.8379 16.4884 10.8305 16.4111 10.7993C16.3338 10.7681 16.2676 10.7145 16.2209 10.6454C16.1743 10.5763 16.1494 10.4948 16.1494 10.4115C16.1494 10.3281 16.1743 10.2466 16.2209 10.1775C16.2676 10.1084 16.3338 10.0548 16.4111 10.0236C16.4884 9.99238 16.5732 9.98497 16.6548 10.0023C16.7363 10.0197 16.8108 10.061 16.8687 10.121C16.9433 10.1993 16.9849 10.3033 16.9849 10.4115C16.9849 10.5196 16.9433 10.6236 16.8687 10.7019Z" fill="#F94A3D"/>
<path d="M14.8499 12.5466C15.081 12.5466 15.2682 12.3593 15.2682 12.1283C15.2682 11.8972 15.081 11.71 14.8499 11.71C14.6189 11.71 14.4316 11.8972 14.4316 12.1283C14.4316 12.3593 14.6189 12.5466 14.8499 12.5466Z" fill="#F94A3D"/>
<path d="M13.4216 14.1472C13.3411 14.2018 13.2441 14.2266 13.1473 14.2174C13.0504 14.2082 12.9598 14.1655 12.8911 14.0968C12.8223 14.028 12.7796 13.9374 12.7704 13.8406C12.7612 13.7437 12.7861 13.6467 12.8406 13.5662C12.9211 13.5116 13.0182 13.4868 13.115 13.496C13.2118 13.5052 13.3024 13.5479 13.3712 13.6167C13.44 13.6854 13.4826 13.776 13.4918 13.8729C13.501 13.9697 13.4762 14.0667 13.4216 14.1472Z" fill="#F94A3D"/>
<path d="M11.6988 15.8719C11.6409 15.9319 11.5664 15.9732 11.4848 15.9905C11.4033 16.0079 11.3184 16.0005 11.2411 15.9692C11.1639 15.938 11.0976 15.8844 11.051 15.8153C11.0044 15.7462 10.9795 15.6647 10.9795 15.5814C10.9795 15.498 11.0044 15.4166 11.051 15.3474C11.0976 15.2783 11.1639 15.2247 11.2411 15.1935C11.3184 15.1623 11.4033 15.1549 11.4848 15.1722C11.5664 15.1896 11.6409 15.2309 11.6988 15.2909C11.7734 15.3692 11.815 15.4732 11.815 15.5814C11.815 15.6895 11.7734 15.7935 11.6988 15.8719Z" fill="#F94A3D"/>
<path d="M18.656 12.488C18.5755 12.5426 18.4785 12.5674 18.3816 12.5582C18.2848 12.549 18.1942 12.5064 18.1254 12.4376C18.0567 12.3688 18.014 12.2782 18.0048 12.1814C17.9956 12.0846 18.0204 11.9876 18.075 11.9071C18.1555 11.8525 18.2525 11.8276 18.3494 11.8368C18.4462 11.846 18.5368 11.8887 18.6056 11.9575C18.6743 12.0263 18.717 12.1169 18.7262 12.2137C18.7354 12.3105 18.7106 12.4075 18.656 12.488Z" fill="#F94A3D"/>
<path d="M16.9331 14.2137C16.8753 14.2736 16.8008 14.315 16.7192 14.3323C16.6377 14.3497 16.5528 14.3423 16.4755 14.311C16.3982 14.2798 16.332 14.2262 16.2854 14.1571C16.2388 14.088 16.2139 14.0065 16.2139 13.9232C16.2139 13.8398 16.2388 13.7584 16.2854 13.6892C16.332 13.6201 16.3982 13.5665 16.4755 13.5353C16.5528 13.5041 16.6377 13.4967 16.7192 13.514C16.8008 13.5314 16.8753 13.5727 16.9331 13.6327C17.0077 13.711 17.0493 13.815 17.0493 13.9232C17.0493 14.0313 17.0077 14.1353 16.9331 14.2137Z" fill="#F94A3D"/>
<path d="M15.2105 15.9363C15.1526 15.9963 15.0781 16.0376 14.9966 16.055C14.915 16.0723 14.8302 16.0649 14.7529 16.0337C14.6756 16.0025 14.6094 15.9489 14.5627 15.8798C14.5161 15.8107 14.4912 15.7292 14.4912 15.6458C14.4912 15.5625 14.5161 15.481 14.5627 15.4119C14.6094 15.3428 14.6756 15.2892 14.7529 15.258C14.8302 15.2268 14.915 15.2193 14.9966 15.2367C15.0781 15.254 15.1526 15.2954 15.2105 15.3554C15.2851 15.4337 15.3267 15.5377 15.3267 15.6458C15.3267 15.754 15.2851 15.858 15.2105 15.9363Z" fill="#F94A3D"/>
<path d="M13.4851 17.6589C13.4046 17.7135 13.3076 17.7383 13.2107 17.7291C13.1139 17.7199 13.0233 17.6773 12.9545 17.6085C12.8858 17.5397 12.8431 17.4491 12.8339 17.3523C12.8247 17.2555 12.8495 17.1585 12.9041 17.0779C12.9846 17.0234 13.0816 16.9985 13.1785 17.0077C13.2753 17.0169 13.3659 17.0596 13.4347 17.1284C13.5034 17.1972 13.5461 17.2877 13.5553 17.3846C13.5645 17.4814 13.5397 17.5784 13.4851 17.6589Z" fill="#F94A3D"/>
<path d="M20.4449 14.2771C20.387 14.3371 20.3125 14.3784 20.2309 14.3958C20.1494 14.4131 20.0645 14.4057 19.9872 14.3745C19.9099 14.3433 19.8437 14.2897 19.7971 14.2206C19.7505 14.1515 19.7256 14.07 19.7256 13.9867C19.7256 13.9033 19.7505 13.8218 19.7971 13.7527C19.8437 13.6836 19.9099 13.63 19.9872 13.5988C20.0645 13.5676 20.1494 13.5602 20.2309 13.5775C20.3125 13.5949 20.387 13.6362 20.4449 13.6962C20.5195 13.7745 20.5611 13.8785 20.5611 13.9867C20.5611 14.0948 20.5195 14.1988 20.4449 14.2771Z" fill="#F94A3D"/>
<path d="M18.7225 15.9997C18.6879 16.0507 18.6425 16.0935 18.5895 16.1249C18.5365 16.1563 18.4772 16.1756 18.4159 16.1814C18.3546 16.1872 18.2927 16.1794 18.2347 16.1586C18.1767 16.1377 18.1241 16.1043 18.0805 16.0608C18.037 16.0172 18.0036 15.9645 17.9827 15.9066C17.9618 15.8486 17.9541 15.7867 17.9599 15.7254C17.9657 15.6641 17.985 15.6048 18.0164 15.5518C18.0478 15.4988 18.0906 15.4533 18.1415 15.4188C18.222 15.3642 18.3191 15.3394 18.4159 15.3486C18.5127 15.3578 18.6033 15.4004 18.6721 15.4692C18.7409 15.538 18.7835 15.6286 18.7927 15.7254C18.8019 15.8222 18.7771 15.9192 18.7225 15.9997Z" fill="#F94A3D"/>
<path d="M16.9966 17.7254C16.9387 17.7854 16.8642 17.8267 16.7827 17.844C16.7012 17.8614 16.6163 17.854 16.539 17.8228C16.4617 17.7915 16.3955 17.7379 16.3489 17.6688C16.3023 17.5997 16.2773 17.5183 16.2773 17.4349C16.2773 17.3515 16.3023 17.2701 16.3489 17.201C16.3955 17.1319 16.4617 17.0783 16.539 17.047C16.6163 17.0158 16.7012 17.0084 16.7827 17.0258C16.8642 17.0431 16.9387 17.0844 16.9966 17.1444C17.0719 17.2224 17.1139 17.3265 17.1139 17.4349C17.1139 17.5433 17.0719 17.6474 16.9966 17.7254Z" fill="#F94A3D"/>
<path d="M15.274 19.448C15.2161 19.508 15.1416 19.5493 15.06 19.5667C14.9785 19.584 14.8936 19.5766 14.8163 19.5454C14.739 19.5142 14.6728 19.4606 14.6262 19.3915C14.5796 19.3224 14.5547 19.2409 14.5547 19.1576C14.5547 19.0742 14.5796 18.9927 14.6262 18.9236C14.6728 18.8545 14.739 18.8009 14.8163 18.7697C14.8936 18.7385 14.9785 18.7311 15.06 18.7484C15.1416 18.7658 15.2161 18.8071 15.274 18.8671C15.3486 18.9454 15.3902 19.0494 15.3902 19.1576C15.3902 19.2657 15.3486 19.3697 15.274 19.448Z" fill="#F94A3D"/>
<path d="M22.2312 16.0642C22.1539 16.1408 22.0495 16.1838 21.9407 16.1838C21.8319 16.1838 21.7275 16.1408 21.6502 16.0642C21.5956 15.9837 21.5708 15.8867 21.58 15.7898C21.5892 15.693 21.6319 15.6024 21.7006 15.5336C21.7694 15.4649 21.86 15.4222 21.9568 15.413C22.0537 15.4038 22.1507 15.4286 22.2312 15.4832C22.3078 15.5605 22.3508 15.6649 22.3508 15.7737C22.3508 15.8825 22.3078 15.9869 22.2312 16.0642Z" fill="#F94A3D"/>
<path d="M20.2122 17.9118C20.4433 17.9118 20.6305 17.7245 20.6305 17.4935C20.6305 17.2625 20.4433 17.0752 20.2122 17.0752C19.9812 17.0752 19.7939 17.2625 19.7939 17.4935C19.7939 17.7245 19.9812 17.9118 20.2122 17.9118Z" fill="#F94A3D"/>
<path d="M18.7868 19.5124C18.7063 19.567 18.6093 19.5918 18.5125 19.5826C18.4157 19.5734 18.3251 19.5308 18.2563 19.462C18.1875 19.3932 18.1449 19.3026 18.1357 19.2058C18.1265 19.109 18.1513 19.012 18.2059 18.9315C18.2864 18.8769 18.3834 18.852 18.4802 18.8613C18.577 18.8705 18.6676 18.9131 18.7364 18.9819C18.8052 19.0507 18.8479 19.1413 18.8571 19.2381C18.8663 19.3349 18.8414 19.4319 18.7868 19.5124Z" fill="#F94A3D"/>
<path d="M17.0613 21.2341C16.984 21.3107 16.8796 21.3537 16.7708 21.3537C16.662 21.3537 16.5576 21.3107 16.4803 21.2341C16.4257 21.1536 16.4009 21.0566 16.4101 20.9598C16.4193 20.8629 16.4619 20.7723 16.5307 20.7036C16.5995 20.6348 16.6901 20.5921 16.7869 20.5829C16.8837 20.5737 16.9808 20.5986 17.0613 20.6531C17.1379 20.7304 17.1809 20.8348 17.1809 20.9436C17.1809 21.0524 17.1379 21.1568 17.0613 21.2341Z" fill="#F94A3D"/>
<path d="M23.7249 17.9753C23.956 17.9753 24.1432 17.788 24.1432 17.557C24.1432 17.326 23.956 17.1387 23.7249 17.1387C23.4939 17.1387 23.3066 17.326 23.3066 17.557C23.3066 17.788 23.4939 17.9753 23.7249 17.9753Z" fill="#F94A3D"/>
<path d="M22.2986 19.5788C22.2181 19.6334 22.1211 19.6583 22.0242 19.6491C21.9274 19.6399 21.8368 19.5972 21.768 19.5284C21.6992 19.4596 21.6566 19.369 21.6474 19.2722C21.6382 19.1754 21.663 19.0784 21.7176 18.9979C21.7981 18.9433 21.8951 18.9185 21.9919 18.9277C22.0888 18.9369 22.1794 18.9795 22.2481 19.0483C22.3169 19.1171 22.3596 19.2077 22.3688 19.3045C22.378 19.4013 22.3532 19.4983 22.2986 19.5788Z" fill="#F94A3D"/>
<path d="M20.5757 21.3015C20.5178 21.3615 20.4433 21.4028 20.3618 21.4202C20.2803 21.4376 20.1954 21.4301 20.1181 21.3989C20.0408 21.3677 19.9746 21.3141 19.928 21.245C19.8814 21.1759 19.8564 21.0944 19.8564 21.0111C19.8564 20.9277 19.8814 20.8462 19.928 20.7771C19.9746 20.708 20.0408 20.6544 20.1181 20.6232C20.1954 20.592 20.2803 20.5846 20.3618 20.6019C20.4433 20.6193 20.5178 20.6606 20.5757 20.7206C20.651 20.7986 20.693 20.9027 20.693 21.0111C20.693 21.1194 20.651 21.2236 20.5757 21.3015Z" fill="#F94A3D"/>
<path d="M18.554 23.1462C18.7851 23.1462 18.9723 22.9589 18.9723 22.7279C18.9723 22.4968 18.7851 22.3096 18.554 22.3096C18.323 22.3096 18.1357 22.4968 18.1357 22.7279C18.1357 22.9589 18.323 23.1462 18.554 23.1462Z" fill="#F94A3D"/>
<path d="M25.8042 19.6424C25.7463 19.7024 25.6719 19.7437 25.5903 19.761C25.5088 19.7784 25.4239 19.771 25.3466 19.7398C25.2693 19.7085 25.2031 19.6549 25.1565 19.5858C25.1099 19.5167 25.085 19.4353 25.085 19.3519C25.085 19.2685 25.1099 19.1871 25.1565 19.118C25.2031 19.0488 25.2693 18.9952 25.3466 18.964C25.4239 18.9328 25.5088 18.9254 25.5903 18.9428C25.6719 18.9601 25.7463 19.0014 25.8042 19.0614C25.8788 19.1397 25.9204 19.2437 25.9204 19.3519C25.9204 19.46 25.8788 19.5641 25.8042 19.6424Z" fill="#F94A3D"/>
<path d="M23.7913 21.487C24.0224 21.487 24.2096 21.2997 24.2096 21.0687C24.2096 20.8377 24.0224 20.6504 23.7913 20.6504C23.5603 20.6504 23.373 20.8377 23.373 21.0687C23.373 21.2997 23.5603 21.487 23.7913 21.487Z" fill="#F94A3D"/>
<path d="M22.3622 23.0876C22.3276 23.1386 22.2822 23.1813 22.2292 23.2127C22.1762 23.2442 22.1169 23.2635 22.0555 23.2693C21.9942 23.2751 21.9323 23.2673 21.8744 23.2465C21.8164 23.2256 21.7637 23.1922 21.7202 23.1486C21.6766 23.1051 21.6432 23.0524 21.6223 22.9945C21.6015 22.9365 21.5937 22.8746 21.5995 22.8133C21.6054 22.752 21.6247 22.6927 21.6561 22.6397C21.6875 22.5867 21.7302 22.5412 21.7812 22.5067C21.8617 22.4521 21.9587 22.4272 22.0555 22.4364C22.1524 22.4457 22.243 22.4883 22.3117 22.5571C22.3805 22.6259 22.4232 22.7165 22.4324 22.8133C22.4416 22.9101 22.4168 23.0071 22.3622 23.0876Z" fill="#F94A3D"/>
<path d="M20.6392 24.8074C20.5813 24.8674 20.5068 24.9087 20.4253 24.9261C20.3437 24.9434 20.2589 24.936 20.1816 24.9048C20.1043 24.8736 20.0381 24.82 19.9915 24.7509C19.9448 24.6818 19.9199 24.6003 19.9199 24.5169C19.9199 24.4336 19.9448 24.3521 19.9915 24.283C20.0381 24.2139 20.1043 24.1603 20.1816 24.1291C20.2589 24.0979 20.3437 24.0904 20.4253 24.1078C20.5068 24.1251 20.5813 24.1665 20.6392 24.2264C20.7138 24.3048 20.7554 24.4088 20.7554 24.5169C20.7554 24.6251 20.7138 24.7291 20.6392 24.8074Z" fill="#F94A3D"/>
<path d="M27.5964 21.4294C27.5159 21.484 27.4189 21.5088 27.3221 21.4996C27.2253 21.4904 27.1347 21.4478 27.0659 21.379C26.9971 21.3102 26.9544 21.2196 26.9452 21.1228C26.936 21.026 26.9609 20.929 27.0154 20.8485C27.096 20.7939 27.193 20.769 27.2898 20.7782C27.3866 20.7874 27.4772 20.8301 27.546 20.8989C27.6148 20.9677 27.6574 21.0583 27.6666 21.1551C27.6758 21.2519 27.651 21.3489 27.5964 21.4294Z" fill="#F94A3D"/>
<path d="M25.8746 23.1551C25.8167 23.2151 25.7422 23.2564 25.6606 23.2737C25.5791 23.2911 25.4942 23.2837 25.4169 23.2525C25.3396 23.2212 25.2734 23.1676 25.2268 23.0985C25.1802 23.0294 25.1553 22.948 25.1553 22.8646C25.1553 22.7812 25.1802 22.6998 25.2268 22.6307C25.2734 22.5615 25.3396 22.5079 25.4169 22.4767C25.4942 22.4455 25.5791 22.4381 25.6606 22.4554C25.7422 22.4728 25.8167 22.5141 25.8746 22.5741C25.9491 22.6524 25.9907 22.7564 25.9907 22.8646C25.9907 22.9727 25.9491 23.0768 25.8746 23.1551Z" fill="#F94A3D"/>
<path d="M24.1519 24.8777C24.094 24.9377 24.0195 24.979 23.938 24.9964C23.8564 25.0137 23.7716 25.0063 23.6943 24.9751C23.617 24.9439 23.5508 24.8903 23.5041 24.8212C23.4575 24.7521 23.4326 24.6706 23.4326 24.5872C23.4326 24.5039 23.4575 24.4224 23.5041 24.3533C23.5508 24.2842 23.617 24.2306 23.6943 24.1994C23.7716 24.1682 23.8564 24.1608 23.938 24.1781C24.0195 24.1955 24.094 24.2368 24.1519 24.2968C24.2265 24.3751 24.2681 24.4791 24.2681 24.5872C24.2681 24.6954 24.2265 24.7994 24.1519 24.8777Z" fill="#F94A3D"/>
<path d="M22.4265 26.5993C22.346 26.6539 22.249 26.6788 22.1522 26.6695C22.0553 26.6603 21.9647 26.6177 21.896 26.5489C21.8272 26.4801 21.7845 26.3895 21.7753 26.2927C21.7661 26.1959 21.7909 26.0989 21.8455 26.0184C21.926 25.9638 22.023 25.939 22.1199 25.9482C22.2167 25.9574 22.3073 26 22.3761 26.0688C22.4449 26.1376 22.4875 26.2282 22.4967 26.325C22.5059 26.4218 22.4811 26.5188 22.4265 26.5993Z" fill="#F94A3D"/>
<path d="M29.3863 23.2185C29.3284 23.2785 29.2539 23.3198 29.1723 23.3372C29.0908 23.3545 29.0059 23.3471 28.9286 23.3159C28.8514 23.2847 28.7851 23.2311 28.7385 23.162C28.6919 23.0929 28.667 23.0114 28.667 22.9281C28.667 22.8447 28.6919 22.7632 28.7385 22.6941C28.7851 22.625 28.8514 22.5714 28.9286 22.5402C29.0059 22.509 29.0908 22.5016 29.1723 22.5189C29.2539 22.5363 29.3284 22.5776 29.3863 22.6376C29.4609 22.7159 29.5025 22.8199 29.5025 22.9281C29.5025 23.0362 29.4609 23.1402 29.3863 23.2185Z" fill="#F94A3D"/>
<path d="M27.6638 24.9411C27.5833 24.9957 27.4863 25.0205 27.3895 25.0113C27.2926 25.0021 27.202 24.9595 27.1333 24.8907C27.0645 24.8219 27.0218 24.7313 27.0126 24.6345C27.0034 24.5377 27.0282 24.4407 27.0828 24.3602C27.1633 24.3056 27.2603 24.2808 27.3572 24.29C27.454 24.2992 27.5446 24.3418 27.6134 24.4106C27.6822 24.4794 27.7248 24.57 27.734 24.6668C27.7432 24.7636 27.7184 24.8606 27.6638 24.9411Z" fill="#F94A3D"/>
<path d="M25.6419 26.7887C25.8729 26.7887 26.0602 26.6015 26.0602 26.3704C26.0602 26.1394 25.8729 25.9521 25.6419 25.9521C25.4109 25.9521 25.2236 26.1394 25.2236 26.3704C25.2236 26.6015 25.4109 26.7887 25.6419 26.7887Z" fill="#F94A3D"/>
<path d="M24.2154 28.3895C24.1575 28.4494 24.083 28.4908 24.0015 28.5081C23.9199 28.5255 23.835 28.518 23.7578 28.4868C23.6805 28.4556 23.6142 28.402 23.5676 28.3329C23.521 28.2638 23.4961 28.1823 23.4961 28.099C23.4961 28.0156 23.521 27.9341 23.5676 27.865C23.6142 27.7959 23.6805 27.7423 23.7578 27.7111C23.835 27.6799 23.9199 27.6725 24.0015 27.6898C24.083 27.7072 24.1575 27.7485 24.2154 27.8085C24.29 27.8868 24.3316 27.9908 24.3316 28.099C24.3316 28.2071 24.29 28.3111 24.2154 28.3895Z" fill="#F94A3D"/>
<path d="M31.1726 25.0056C31.0953 25.0822 30.9909 25.1252 30.8821 25.1252C30.7733 25.1252 30.6689 25.0822 30.5916 25.0056C30.537 24.9251 30.5122 24.8281 30.5214 24.7313C30.5306 24.6344 30.5733 24.5438 30.642 24.4751C30.7108 24.4063 30.8014 24.3636 30.8982 24.3544C30.9951 24.3452 31.0921 24.37 31.1726 24.4246C31.2492 24.5019 31.2922 24.6063 31.2922 24.7151C31.2922 24.8239 31.2492 24.9283 31.1726 25.0056Z" fill="#F94A3D"/>
<path d="M29.4497 26.7303C29.3919 26.7903 29.3174 26.8316 29.2358 26.8489C29.1543 26.8663 29.0694 26.8589 28.9921 26.8276C28.9148 26.7964 28.8486 26.7428 28.802 26.6737C28.7554 26.6046 28.7305 26.5231 28.7305 26.4398C28.7305 26.3564 28.7554 26.275 28.802 26.2058C28.8486 26.1367 28.9148 26.0831 28.9921 26.0519C29.0694 26.0207 29.1543 26.0133 29.2358 26.0306C29.3174 26.048 29.3919 26.0893 29.4497 26.1493C29.525 26.2273 29.5671 26.3314 29.5671 26.4398C29.5671 26.5482 29.525 26.6523 29.4497 26.7303Z" fill="#F94A3D"/>
<path d="M27.431 28.5749C27.662 28.5749 27.8493 28.3876 27.8493 28.1566C27.8493 27.9256 27.662 27.7383 27.431 27.7383C27.2 27.7383 27.0127 27.9256 27.0127 28.1566C27.0127 28.3876 27.2 28.5749 27.431 28.5749Z" fill="#F94A3D"/>
<path d="M26.0017 30.1755C25.9244 30.2522 25.82 30.2951 25.7112 30.2951C25.6024 30.2951 25.498 30.2522 25.4207 30.1755C25.3661 30.095 25.3413 29.998 25.3505 29.9012C25.3597 29.8043 25.4024 29.7138 25.4711 29.645C25.5399 29.5762 25.6305 29.5335 25.7273 29.5243C25.8242 29.5151 25.9212 29.54 26.0017 29.5946C26.0783 29.6718 26.1213 29.7762 26.1213 29.885C26.1213 29.9939 26.0783 30.0983 26.0017 30.1755Z" fill="#F94A3D"/>
<path d="M32.9624 26.7947C32.9045 26.8547 32.8301 26.896 32.7485 26.9134C32.667 26.9307 32.5821 26.9233 32.5048 26.8921C32.4275 26.8609 32.3613 26.8073 32.3147 26.7382C32.2681 26.6691 32.2432 26.5876 32.2432 26.5042C32.2432 26.4209 32.2681 26.3394 32.3147 26.2703C32.3613 26.2012 32.4275 26.1476 32.5048 26.1164C32.5821 26.0852 32.667 26.0777 32.7485 26.0951C32.8301 26.1124 32.9045 26.1538 32.9624 26.2137C33.0377 26.2917 33.0798 26.3959 33.0798 26.5042C33.0798 26.6126 33.0377 26.7167 32.9624 26.7947Z" fill="#F94A3D"/>
<path d="M31.239 28.5173C31.1585 28.5719 31.0615 28.5967 30.9647 28.5875C30.8678 28.5783 30.7772 28.5357 30.7085 28.4669C30.6397 28.3981 30.597 28.3075 30.5878 28.2107C30.5786 28.1139 30.6034 28.0168 30.658 27.9363C30.7385 27.8818 30.8355 27.8569 30.9324 27.8661C31.0292 27.8753 31.1198 27.918 31.1886 27.9868C31.2573 28.0555 31.3 28.1461 31.3092 28.243C31.3184 28.3398 31.2936 28.4368 31.239 28.5173Z" fill="#F94A3D"/>
<path d="M29.5142 30.243C29.4563 30.3029 29.3818 30.3443 29.3003 30.3616C29.2187 30.379 29.1339 30.3716 29.0566 30.3403C28.9793 30.3091 28.9131 30.2555 28.8665 30.1864C28.8198 30.1173 28.7949 30.0358 28.7949 29.9525C28.7949 29.8691 28.8198 29.7876 28.8665 29.7185C28.9131 29.6494 28.9793 29.5958 29.0566 29.5646C29.1339 29.5334 29.2187 29.526 29.3003 29.5433C29.3818 29.5607 29.4563 29.602 29.5142 29.662C29.5895 29.74 29.6315 29.8441 29.6315 29.9525C29.6315 30.0608 29.5895 30.165 29.5142 30.243Z" fill="#F94A3D"/>
<path d="M27.7909 31.9646C27.7563 32.0156 27.7109 32.0583 27.6579 32.0897C27.6049 32.1211 27.5456 32.1404 27.4842 32.1462C27.4229 32.1521 27.361 32.1443 27.3031 32.1234C27.2451 32.1026 27.1924 32.0692 27.1489 32.0256C27.1053 31.982 27.0719 31.9294 27.0511 31.8714C27.0302 31.8134 27.0224 31.7516 27.0282 31.6902C27.0341 31.6289 27.0534 31.5696 27.0848 31.5166C27.1162 31.4636 27.1589 31.4182 27.2099 31.3836C27.2904 31.329 27.3874 31.3042 27.4842 31.3134C27.5811 31.3226 27.6717 31.3653 27.7404 31.434C27.8092 31.5028 27.8519 31.5934 27.8611 31.6902C27.8703 31.7871 27.8455 31.8841 27.7909 31.9646Z" fill="#F94A3D"/>
<path d="M34.7515 28.5838C34.6936 28.6438 34.6191 28.6851 34.5376 28.7024C34.456 28.7198 34.3712 28.7124 34.2939 28.6812C34.2166 28.6499 34.1504 28.5963 34.1038 28.5272C34.0571 28.4581 34.0322 28.3767 34.0322 28.2933C34.0322 28.2099 34.0571 28.1285 34.1038 28.0594C34.1504 27.9903 34.2166 27.9367 34.2939 27.9054C34.3712 27.8742 34.456 27.8668 34.5376 27.8842C34.6191 27.9015 34.6936 27.9428 34.7515 28.0028C34.8261 28.0811 34.8677 28.1851 34.8677 28.2933C34.8677 28.4015 34.8261 28.5055 34.7515 28.5838Z" fill="#F94A3D"/>
<path d="M32.7327 30.4284C32.9638 30.4284 33.151 30.2411 33.151 30.0101C33.151 29.7791 32.9638 29.5918 32.7327 29.5918C32.5017 29.5918 32.3145 29.7791 32.3145 30.0101C32.3145 30.2411 32.5017 30.4284 32.7327 30.4284Z" fill="#F94A3D"/>
<path d="M31.3036 32.029C31.269 32.08 31.2236 32.1227 31.1706 32.1542C31.1176 32.1856 31.0583 32.2049 30.9969 32.2107C30.9356 32.2165 30.8737 32.2087 30.8158 32.1879C30.7578 32.167 30.7051 32.1336 30.6616 32.0901C30.618 32.0465 30.5846 31.9938 30.5638 31.9359C30.5429 31.8779 30.5351 31.816 30.5409 31.7547C30.5468 31.6934 30.5661 31.6341 30.5975 31.5811C30.6289 31.5281 30.6716 31.4826 30.7226 31.4481C30.8031 31.3935 30.9001 31.3687 30.9969 31.3779C31.0938 31.3871 31.1844 31.4297 31.2531 31.4985C31.3219 31.5673 31.3646 31.6579 31.3738 31.7547C31.383 31.8515 31.3582 31.9485 31.3036 32.029Z" fill="#F94A3D"/>
<path d="M29.5806 33.7547C29.5227 33.8147 29.4482 33.856 29.3667 33.8733C29.2851 33.8907 29.2003 33.8833 29.123 33.8521C29.0457 33.8208 28.9795 33.7672 28.9329 33.6981C28.8862 33.629 28.8613 33.5476 28.8613 33.4642C28.8613 33.3808 28.8862 33.2994 28.9329 33.2303C28.9795 33.1612 29.0457 33.1076 29.123 33.0763C29.2003 33.0451 29.2851 33.0377 29.3667 33.0551C29.4482 33.0724 29.5227 33.1137 29.5806 33.1737C29.6552 33.252 29.6968 33.356 29.6968 33.4642C29.6968 33.5723 29.6552 33.6764 29.5806 33.7547Z" fill="#F94A3D"/>
<path d="M28.5911 2.74578L3.74561 27.5913C3.33382 28.0031 3.33382 28.6707 3.74561 29.0825L10.4089 35.7458C10.8207 36.1576 11.4883 36.1576 11.9001 35.7458L36.7456 10.9003C37.1574 10.4885 37.1574 9.82084 36.7456 9.40905L30.0824 2.74578C29.6706 2.33399 29.0029 2.33399 28.5911 2.74578Z" fill="#E81F1A"/>
<path d="M21.5868 11.7052L12.7032 20.5888C12.3844 20.9076 12.3844 21.4244 12.7032 21.7432L17.7499 26.7899C18.0687 27.1087 18.5855 27.1087 18.9043 26.7899L27.7879 17.9063C28.1067 17.5875 28.1067 17.0707 27.7879 16.7519L22.7412 11.7052C22.4224 11.3864 21.9056 11.3864 21.5868 11.7052Z" fill="#F94A3D"/>
<path d="M29 5.3455C29.0579 5.40548 29.1324 5.4468 29.2139 5.46415C29.2954 5.4815 29.3803 5.47409 29.4576 5.44288C29.5349 5.41166 29.6011 5.35806 29.6477 5.28895C29.6944 5.21984 29.7193 5.13838 29.7193 5.05502C29.7193 4.97165 29.6944 4.89019 29.6477 4.82108C29.6011 4.75197 29.5349 4.69837 29.4576 4.66715C29.3803 4.63594 29.2954 4.62853 29.2139 4.64588C29.1324 4.66323 29.0579 4.70455 29 4.76453C28.9254 4.84285 28.8838 4.94686 28.8838 5.05502C28.8838 5.16317 28.9254 5.26718 29 5.3455Z" fill="#C10A0A"/>
<path d="M30.7109 7.05943C30.7914 7.11401 30.8884 7.13884 30.9852 7.12964C31.082 7.12044 31.1726 7.07778 31.2414 7.009C31.3102 6.94022 31.3529 6.84963 31.3621 6.7528C31.3713 6.65597 31.3464 6.55896 31.2918 6.47846C31.2573 6.42747 31.2119 6.38474 31.1589 6.35334C31.1058 6.32194 31.0466 6.30263 30.9852 6.2968C30.9239 6.29097 30.862 6.29876 30.804 6.31961C30.7461 6.34047 30.6934 6.37387 30.6499 6.41744C30.6063 6.461 30.5729 6.51365 30.552 6.57163C30.5312 6.6296 30.5234 6.69147 30.5292 6.7528C30.5351 6.81413 30.5544 6.87342 30.5858 6.92643C30.6172 6.97943 30.6599 7.02485 30.7109 7.05943Z" fill="#C10A0A"/>
<path d="M32.4366 8.78398C32.4945 8.84396 32.569 8.88528 32.6506 8.90263C32.7321 8.91998 32.817 8.91257 32.8943 8.88135C32.9716 8.85014 33.0378 8.79653 33.0844 8.72743C33.131 8.65832 33.1559 8.57686 33.1559 8.49349C33.1559 8.41013 33.131 8.32867 33.0844 8.25956C33.0378 8.19045 32.9716 8.13685 32.8943 8.10563C32.817 8.07441 32.7321 8.06701 32.6506 8.08436C32.569 8.10171 32.4945 8.14302 32.4366 8.20301C32.3614 8.28098 32.3193 8.38512 32.3193 8.49349C32.3193 8.60186 32.3614 8.706 32.4366 8.78398Z" fill="#C10A0A"/>
<path d="M34.1592 10.5066C34.2171 10.5666 34.2915 10.6079 34.3731 10.6253C34.4546 10.6426 34.5395 10.6352 34.6168 10.604C34.6941 10.5728 34.7603 10.5192 34.8069 10.4501C34.8535 10.381 34.8784 10.2995 34.8784 10.2161C34.8784 10.1328 34.8535 10.0513 34.8069 9.98221C34.7603 9.91311 34.6941 9.8595 34.6168 9.82829C34.5395 9.79707 34.4546 9.78966 34.3731 9.80701C34.2915 9.82436 34.2171 9.86568 34.1592 9.92566C34.0846 10.004 34.043 10.108 34.043 10.2161C34.043 10.3243 34.0846 10.4283 34.1592 10.5066Z" fill="#C10A0A"/>
<path d="M27.1992 7.1229C27.2797 7.17749 27.3767 7.20232 27.4735 7.19311C27.5703 7.18391 27.6609 7.14125 27.7297 7.07247C27.7985 7.0037 27.8411 6.9131 27.8503 6.81628C27.8595 6.71945 27.8347 6.62244 27.7801 6.54194C27.7456 6.49094 27.7001 6.44822 27.6471 6.41682C27.5941 6.38541 27.5348 6.36611 27.4735 6.36028C27.4122 6.35445 27.3503 6.36224 27.2923 6.38309C27.2344 6.40395 27.1817 6.43735 27.1381 6.48091C27.0946 6.52448 27.0612 6.57713 27.0403 6.6351C27.0195 6.69308 27.0117 6.75494 27.0175 6.81628C27.0233 6.87761 27.0426 6.9369 27.074 6.9899C27.1054 7.04291 27.1482 7.08832 27.1992 7.1229Z" fill="#C10A0A"/>
<path d="M29.221 8.97038C29.4521 8.97038 29.6393 8.7831 29.6393 8.55209C29.6393 8.32107 29.4521 8.13379 29.221 8.13379C28.99 8.13379 28.8027 8.32107 28.8027 8.55209C28.8027 8.7831 28.99 8.97038 29.221 8.97038Z" fill="#C10A0A"/>
<path d="M30.6473 10.574C30.6819 10.6249 30.7273 10.6677 30.7803 10.6991C30.8333 10.7305 30.8926 10.7498 30.9539 10.7556C31.0152 10.7614 31.0771 10.7537 31.1351 10.7328C31.1931 10.7119 31.2457 10.6785 31.2893 10.635C31.3328 10.5914 31.3662 10.5388 31.3871 10.4808C31.408 10.4228 31.4157 10.3609 31.4099 10.2996C31.4041 10.2383 31.3848 10.179 31.3534 10.126C31.322 10.073 31.2792 10.0276 31.2283 9.99299C31.1478 9.9384 31.0507 9.91357 30.9539 9.92278C30.8571 9.93198 30.7665 9.97464 30.6977 10.0434C30.6289 10.1122 30.5863 10.2028 30.5771 10.2996C30.5679 10.3964 30.5927 10.4935 30.6473 10.574Z" fill="#C10A0A"/>
<path d="M32.3722 12.2967C32.4301 12.3567 32.5046 12.398 32.5861 12.4153C32.6677 12.4327 32.7525 12.4253 32.8298 12.394C32.9071 12.3628 32.9733 12.3092 33.0199 12.2401C33.0666 12.171 33.0915 12.0895 33.0915 12.0062C33.0915 11.9228 33.0666 11.8414 33.0199 11.7723C32.9733 11.7031 32.9071 11.6495 32.8298 11.6183C32.7525 11.5871 32.6677 11.5797 32.5861 11.5971C32.5046 11.6144 32.4301 11.6557 32.3722 11.7157C32.2969 11.7937 32.2549 11.8978 32.2549 12.0062C32.2549 12.1146 32.2969 12.2187 32.3722 12.2967Z" fill="#C10A0A"/>
<path d="M25.7083 9.03386C25.9394 9.03386 26.1266 8.84658 26.1266 8.61556C26.1266 8.38454 25.9394 8.19727 25.7083 8.19727C25.4773 8.19727 25.29 8.38454 25.29 8.61556C25.29 8.84658 25.4773 9.03386 25.7083 9.03386Z" fill="#C10A0A"/>
<path d="M27.1347 10.6346C27.2152 10.6892 27.3122 10.714 27.409 10.7048C27.5059 10.6956 27.5965 10.653 27.6653 10.5842C27.734 10.5154 27.7767 10.4248 27.7859 10.328C27.7951 10.2312 27.7703 10.1342 27.7157 10.0537C27.6811 10.0027 27.6357 9.95994 27.5827 9.92853C27.5297 9.89713 27.4704 9.87782 27.409 9.87199C27.3477 9.86616 27.2859 9.87396 27.2279 9.89481C27.1699 9.91566 27.1173 9.94907 27.0737 9.99263C27.0301 10.0362 26.9967 10.0888 26.9759 10.1468C26.955 10.2048 26.9472 10.2667 26.953 10.328C26.9589 10.3893 26.9782 10.4486 27.0096 10.5016C27.041 10.5546 27.0837 10.6 27.1347 10.6346Z" fill="#C10A0A"/>
<path d="M28.8605 12.3601C28.9184 12.4201 28.9929 12.4614 29.0744 12.4788C29.1559 12.4961 29.2408 12.4887 29.3181 12.4575C29.3954 12.4263 29.4616 12.3727 29.5082 12.3036C29.5548 12.2345 29.5798 12.153 29.5798 12.0697C29.5798 11.9863 29.5548 11.9048 29.5082 11.8357C29.4616 11.7666 29.3954 11.713 29.3181 11.6818C29.2408 11.6506 29.1559 11.6432 29.0744 11.6605C28.9929 11.6779 28.9184 11.7192 28.8605 11.7792C28.7852 11.8572 28.7432 11.9613 28.7432 12.0697C28.7432 12.178 28.7852 12.2822 28.8605 12.3601Z" fill="#C10A0A"/>
<path d="M30.8792 14.2048C31.1103 14.2048 31.2975 14.0175 31.2975 13.7865C31.2975 13.5554 31.1103 13.3682 30.8792 13.3682C30.6482 13.3682 30.4609 13.5554 30.4609 13.7865C30.4609 14.0175 30.6482 14.2048 30.8792 14.2048Z" fill="#C10A0A"/>
<path d="M23.623 10.7019C23.6809 10.7619 23.7554 10.8032 23.837 10.8206C23.9185 10.8379 24.0034 10.8305 24.0807 10.7993C24.158 10.7681 24.2242 10.7145 24.2708 10.6454C24.3174 10.5763 24.3423 10.4948 24.3423 10.4115C24.3423 10.3281 24.3174 10.2466 24.2708 10.1775C24.2242 10.1084 24.158 10.0548 24.0807 10.0236C24.0034 9.99238 23.9185 9.98497 23.837 10.0023C23.7554 10.0197 23.6809 10.061 23.623 10.121C23.5484 10.1993 23.5068 10.3033 23.5068 10.4115C23.5068 10.5196 23.5484 10.6236 23.623 10.7019Z" fill="#C10A0A"/>
<path d="M25.6419 12.5466C25.8729 12.5466 26.0602 12.3593 26.0602 12.1283C26.0602 11.8972 25.8729 11.71 25.6419 11.71C25.4109 11.71 25.2236 11.8972 25.2236 12.1283C25.2236 12.3593 25.4109 12.5466 25.6419 12.5466Z" fill="#C10A0A"/>
<path d="M27.0712 14.1463C27.1517 14.2009 27.2487 14.2258 27.3456 14.2166C27.4424 14.2073 27.533 14.1647 27.6018 14.0959C27.6705 14.0271 27.7132 13.9365 27.7224 13.8397C27.7316 13.7429 27.7068 13.6459 27.6522 13.5654C27.6176 13.5144 27.5722 13.4717 27.5192 13.4403C27.4662 13.4088 27.4069 13.3895 27.3456 13.3837C27.2842 13.3779 27.2224 13.3857 27.1644 13.4065C27.1064 13.4274 27.0538 13.4608 27.0102 13.5044C26.9666 13.5479 26.9332 13.6006 26.9124 13.6585C26.8915 13.7165 26.8837 13.7784 26.8896 13.8397C26.8954 13.901 26.9147 13.9603 26.9461 14.0133C26.9775 14.0663 27.0202 14.1118 27.0712 14.1463Z" fill="#C10A0A"/>
<path d="M28.7939 15.8719C28.8518 15.9319 28.9263 15.9732 29.0079 15.9905C29.0894 16.0079 29.1743 16.0005 29.2515 15.9692C29.3288 15.938 29.3951 15.8844 29.4417 15.8153C29.4883 15.7462 29.5132 15.6647 29.5132 15.5814C29.5132 15.498 29.4883 15.4166 29.4417 15.3474C29.3951 15.2783 29.3288 15.2247 29.2515 15.1935C29.1743 15.1623 29.0894 15.1549 29.0079 15.1722C28.9263 15.1896 28.8518 15.2309 28.7939 15.2909C28.7193 15.3692 28.6777 15.4732 28.6777 15.5814C28.6777 15.6895 28.7193 15.7935 28.7939 15.8719Z" fill="#C10A0A"/>
<path d="M21.8367 12.488C21.9172 12.5426 22.0142 12.5674 22.1111 12.5582C22.2079 12.549 22.2985 12.5064 22.3673 12.4376C22.4361 12.3688 22.4787 12.2782 22.4879 12.1814C22.4971 12.0846 22.4723 11.9876 22.4177 11.9071C22.3372 11.8525 22.2402 11.8276 22.1434 11.8368C22.0465 11.846 21.9559 11.8887 21.8872 11.9575C21.8184 12.0263 21.7757 12.1169 21.7665 12.2137C21.7573 12.3105 21.7822 12.4075 21.8367 12.488Z" fill="#C10A0A"/>
<path d="M23.5586 14.2137C23.6165 14.2736 23.691 14.315 23.7725 14.3323C23.854 14.3497 23.9389 14.3423 24.0162 14.311C24.0935 14.2798 24.1597 14.2262 24.2063 14.1571C24.2529 14.088 24.2779 14.0065 24.2779 13.9232C24.2779 13.8398 24.2529 13.7584 24.2063 13.6892C24.1597 13.6201 24.0935 13.5665 24.0162 13.5353C23.9389 13.5041 23.854 13.4967 23.7725 13.514C23.691 13.5314 23.6165 13.5727 23.5586 13.6327C23.484 13.711 23.4424 13.815 23.4424 13.9232C23.4424 14.0313 23.484 14.1353 23.5586 14.2137Z" fill="#C10A0A"/>
<path d="M25.2812 15.9363C25.3391 15.9963 25.4136 16.0376 25.4952 16.055C25.5767 16.0723 25.6616 16.0649 25.7389 16.0337C25.8162 16.0025 25.8824 15.9489 25.929 15.8798C25.9756 15.8107 26.0005 15.7292 26.0005 15.6458C26.0005 15.5625 25.9756 15.481 25.929 15.4119C25.8824 15.3428 25.8162 15.2892 25.7389 15.258C25.6616 15.2268 25.5767 15.2193 25.4952 15.2367C25.4136 15.254 25.3391 15.2954 25.2812 15.3554C25.2066 15.4337 25.165 15.5377 25.165 15.6458C25.165 15.754 25.2066 15.858 25.2812 15.9363Z" fill="#C10A0A"/>
<path d="M27.0067 17.6589C27.0872 17.7135 27.1842 17.7383 27.281 17.7291C27.3778 17.7199 27.4684 17.6773 27.5372 17.6085C27.606 17.5397 27.6486 17.4491 27.6578 17.3523C27.667 17.2555 27.6422 17.1585 27.5876 17.0779C27.5071 17.0234 27.4101 16.9985 27.3133 17.0077C27.2165 17.0169 27.1259 17.0596 27.0571 17.1284C26.9883 17.1972 26.9457 17.2877 26.9364 17.3846C26.9272 17.4814 26.9521 17.5784 27.0067 17.6589Z" fill="#C10A0A"/>
<path d="M20.0469 14.2771C20.1047 14.3371 20.1792 14.3784 20.2608 14.3958C20.3423 14.4131 20.4272 14.4057 20.5045 14.3745C20.5818 14.3433 20.648 14.2897 20.6946 14.2206C20.7412 14.1515 20.7661 14.07 20.7661 13.9867C20.7661 13.9033 20.7412 13.8218 20.6946 13.7527C20.648 13.6836 20.5818 13.63 20.5045 13.5988C20.4272 13.5676 20.3423 13.5602 20.2608 13.5775C20.1792 13.5949 20.1047 13.6362 20.0469 13.6962C19.9723 13.7745 19.9307 13.8785 19.9307 13.9867C19.9307 14.0948 19.9723 14.1988 20.0469 14.2771Z" fill="#C10A0A"/>
<path d="M21.7695 15.9999C21.85 16.0544 21.947 16.0793 22.0438 16.0701C22.1406 16.0609 22.2312 16.0182 22.3 15.9494C22.3688 15.8807 22.4114 15.7901 22.4207 15.6932C22.4299 15.5964 22.405 15.4994 22.3504 15.4189C22.3159 15.3679 22.2704 15.3252 22.2174 15.2938C22.1644 15.2624 22.1051 15.2431 22.0438 15.2372C21.9825 15.2314 21.9206 15.2392 21.8626 15.26C21.8047 15.2809 21.752 15.3143 21.7085 15.3579C21.6649 15.4014 21.6315 15.4541 21.6106 15.5121C21.5898 15.57 21.582 15.6319 21.5878 15.6932C21.5936 15.7546 21.613 15.8139 21.6444 15.8669C21.6758 15.9199 21.7185 15.9653 21.7695 15.9999Z" fill="#C10A0A"/>
<path d="M23.4952 17.7254C23.5531 17.7854 23.6276 17.8267 23.7092 17.844C23.7907 17.8614 23.8756 17.854 23.9529 17.8228C24.0302 17.7915 24.0964 17.7379 24.143 17.6688C24.1896 17.5997 24.2145 17.5183 24.2145 17.4349C24.2145 17.3515 24.1896 17.2701 24.143 17.201C24.0964 17.1319 24.0302 17.0783 23.9529 17.047C23.8756 17.0158 23.7907 17.0084 23.7092 17.0258C23.6276 17.0431 23.5531 17.0844 23.4952 17.1444C23.42 17.2224 23.3779 17.3265 23.3779 17.4349C23.3779 17.5433 23.42 17.6474 23.4952 17.7254Z" fill="#C10A0A"/>
<path d="M25.2236 19.448C25.2815 19.508 25.356 19.5493 25.4375 19.5667C25.5191 19.584 25.6039 19.5766 25.6812 19.5454C25.7585 19.5142 25.8247 19.4606 25.8714 19.3915C25.918 19.3224 25.9429 19.2409 25.9429 19.1576C25.9429 19.0742 25.918 18.9927 25.8714 18.9236C25.8247 18.8545 25.7585 18.8009 25.6812 18.7697C25.6039 18.7385 25.5191 18.7311 25.4375 18.7484C25.356 18.7658 25.2815 18.8071 25.2236 18.8671C25.149 18.9454 25.1074 19.0494 25.1074 19.1576C25.1074 19.2657 25.149 19.3697 25.2236 19.448Z" fill="#C10A0A"/>
<path d="M18.2515 16.0642C18.3287 16.1408 18.4331 16.1838 18.542 16.1838C18.6508 16.1838 18.7552 16.1408 18.8324 16.0642C18.887 15.9837 18.9119 15.8867 18.9026 15.7898C18.8934 15.693 18.8508 15.6024 18.782 15.5336C18.7132 15.4649 18.6226 15.4222 18.5258 15.413C18.429 15.4038 18.332 15.4286 18.2515 15.4832C18.1748 15.5605 18.1318 15.6649 18.1318 15.7737C18.1318 15.8825 18.1748 15.9869 18.2515 16.0642Z" fill="#C10A0A"/>
<path d="M20.2796 17.9118C20.5106 17.9118 20.6979 17.7245 20.6979 17.4935C20.6979 17.2625 20.5106 17.0752 20.2796 17.0752C20.0486 17.0752 19.8613 17.2625 19.8613 17.4935C19.8613 17.7245 20.0486 17.9118 20.2796 17.9118Z" fill="#C10A0A"/>
<path d="M21.7059 19.5124C21.7864 19.567 21.8834 19.5918 21.9802 19.5826C22.077 19.5734 22.1676 19.5308 22.2364 19.462C22.3052 19.3932 22.3479 19.3026 22.3571 19.2058C22.3663 19.109 22.3414 19.012 22.2868 18.9315C22.2063 18.8769 22.1093 18.852 22.0125 18.8613C21.9157 18.8705 21.8251 18.9131 21.7563 18.9819C21.6875 19.0507 21.6449 19.1413 21.6357 19.2381C21.6265 19.3349 21.6513 19.4319 21.7059 19.5124Z" fill="#C10A0A"/>
<path d="M23.4312 21.2341C23.5084 21.3107 23.6128 21.3537 23.7216 21.3537C23.8305 21.3537 23.9349 21.3107 24.0121 21.2341C24.0667 21.1536 24.0915 21.0566 24.0823 20.9598C24.0731 20.8629 24.0305 20.7723 23.9617 20.7036C23.8929 20.6348 23.8023 20.5921 23.7055 20.5829C23.6087 20.5737 23.5117 20.5986 23.4312 20.6531C23.3545 20.7304 23.3115 20.8348 23.3115 20.9436C23.3115 21.0524 23.3545 21.1568 23.4312 21.2341Z" fill="#C10A0A"/>
<path d="M16.7679 17.9753C16.9989 17.9753 17.1862 17.788 17.1862 17.557C17.1862 17.326 16.9989 17.1387 16.7679 17.1387C16.5369 17.1387 16.3496 17.326 16.3496 17.557C16.3496 17.788 16.5369 17.9753 16.7679 17.9753Z" fill="#C10A0A"/>
<path d="M18.1942 19.5788C18.2747 19.6334 18.3717 19.6583 18.4685 19.6491C18.5653 19.6399 18.6559 19.5972 18.7247 19.5284C18.7935 19.4596 18.8361 19.369 18.8453 19.2722C18.8545 19.1754 18.8297 19.0784 18.7751 18.9979C18.6946 18.9433 18.5976 18.9185 18.5008 18.9277C18.404 18.9369 18.3134 18.9795 18.2446 19.0483C18.1758 19.1171 18.1332 19.2077 18.1239 19.3045C18.1147 19.4013 18.1396 19.4983 18.1942 19.5788Z" fill="#C10A0A"/>
<path d="M19.9191 21.3015C19.977 21.3615 20.0515 21.4028 20.133 21.4202C20.2145 21.4376 20.2994 21.4301 20.3767 21.3989C20.454 21.3677 20.5202 21.3141 20.5668 21.245C20.6134 21.1759 20.6384 21.0944 20.6384 21.0111C20.6384 20.9277 20.6134 20.8462 20.5668 20.7771C20.5202 20.708 20.454 20.6544 20.3767 20.6232C20.2994 20.592 20.2145 20.5846 20.133 20.6019C20.0515 20.6193 19.977 20.6606 19.9191 20.7206C19.8438 20.7986 19.8018 20.9027 19.8018 21.0111C19.8018 21.1194 19.8438 21.2236 19.9191 21.3015Z" fill="#C10A0A"/>
<path d="M21.9378 23.1462C22.1688 23.1462 22.3561 22.9589 22.3561 22.7279C22.3561 22.4968 22.1688 22.3096 21.9378 22.3096C21.7068 22.3096 21.5195 22.4968 21.5195 22.7279C21.5195 22.9589 21.7068 23.1462 21.9378 23.1462Z" fill="#C10A0A"/>
<path d="M14.6816 19.6424C14.7395 19.7024 14.814 19.7437 14.8955 19.761C14.9771 19.7784 15.0619 19.771 15.1392 19.7398C15.2165 19.7085 15.2827 19.6549 15.3294 19.5858C15.376 19.5167 15.4009 19.4353 15.4009 19.3519C15.4009 19.2685 15.376 19.1871 15.3294 19.118C15.2827 19.0488 15.2165 18.9952 15.1392 18.964C15.0619 18.9328 14.9771 18.9254 14.8955 18.9428C14.814 18.9601 14.7395 19.0014 14.6816 19.0614C14.607 19.1397 14.5654 19.2437 14.5654 19.3519C14.5654 19.46 14.607 19.5641 14.6816 19.6424Z" fill="#C10A0A"/>
<path d="M16.7005 21.487C16.9315 21.487 17.1188 21.2997 17.1188 21.0687C17.1188 20.8377 16.9315 20.6504 16.7005 20.6504C16.4695 20.6504 16.2822 20.8377 16.2822 21.0687C16.2822 21.2997 16.4695 21.487 16.7005 21.487Z" fill="#C10A0A"/>
<path d="M18.1298 23.0877C18.2103 23.1423 18.3073 23.1672 18.4042 23.158C18.501 23.1488 18.5916 23.1061 18.6604 23.0373C18.7291 22.9685 18.7718 22.8779 18.781 22.7811C18.7902 22.6843 18.7654 22.5873 18.7108 22.5068C18.6762 22.4558 18.6308 22.4131 18.5778 22.3817C18.5248 22.3503 18.4655 22.3309 18.4042 22.3251C18.3428 22.3193 18.281 22.3271 18.223 22.3479C18.165 22.3688 18.1124 22.4022 18.0688 22.4458C18.0252 22.4893 17.9918 22.542 17.971 22.5999C17.9501 22.6579 17.9423 22.7198 17.9482 22.7811C17.954 22.8425 17.9733 22.9017 18.0047 22.9547C18.0361 23.0078 18.0788 23.0532 18.1298 23.0877Z" fill="#C10A0A"/>
<path d="M19.8525 24.8074C19.9104 24.8674 19.9849 24.9087 20.0664 24.9261C20.148 24.9434 20.2328 24.936 20.3101 24.9048C20.3874 24.8736 20.4536 24.82 20.5003 24.7509C20.5469 24.6818 20.5718 24.6003 20.5718 24.5169C20.5718 24.4336 20.5469 24.3521 20.5003 24.283C20.4536 24.2139 20.3874 24.1603 20.3101 24.1291C20.2328 24.0979 20.148 24.0904 20.0664 24.1078C19.9849 24.1251 19.9104 24.1665 19.8525 24.2264C19.7779 24.3048 19.7363 24.4088 19.7363 24.5169C19.7363 24.6251 19.7779 24.7291 19.8525 24.8074Z" fill="#C10A0A"/>
<path d="M12.8953 21.4294C12.9758 21.484 13.0728 21.5088 13.1697 21.4996C13.2665 21.4904 13.3571 21.4478 13.4259 21.379C13.4946 21.3102 13.5373 21.2196 13.5465 21.1228C13.5557 21.026 13.5309 20.929 13.4763 20.8485C13.3958 20.7939 13.2988 20.769 13.202 20.7782C13.1051 20.7874 13.0145 20.8301 12.9458 20.8989C12.877 20.9677 12.8343 21.0583 12.8251 21.1551C12.8159 21.2519 12.8407 21.3489 12.8953 21.4294Z" fill="#C10A0A"/>
<path d="M14.6181 23.1551C14.676 23.2151 14.7505 23.2564 14.8321 23.2737C14.9136 23.2911 14.9985 23.2837 15.0758 23.2525C15.1531 23.2212 15.2193 23.1676 15.2659 23.0985C15.3125 23.0294 15.3374 22.948 15.3374 22.8646C15.3374 22.7812 15.3125 22.6998 15.2659 22.6307C15.2193 22.5615 15.1531 22.5079 15.0758 22.4767C14.9985 22.4455 14.9136 22.4381 14.8321 22.4554C14.7505 22.4728 14.676 22.5141 14.6181 22.5741C14.5436 22.6524 14.502 22.7564 14.502 22.8646C14.502 22.9727 14.5436 23.0768 14.6181 23.1551Z" fill="#C10A0A"/>
<path d="M16.3408 24.8777C16.3987 24.9377 16.4732 24.979 16.5547 24.9964C16.6363 25.0137 16.7211 25.0063 16.7984 24.9751C16.8757 24.9439 16.9419 24.8903 16.9886 24.8212C17.0352 24.7521 17.0601 24.6706 17.0601 24.5872C17.0601 24.5039 17.0352 24.4224 16.9886 24.3533C16.9419 24.2842 16.8757 24.2306 16.7984 24.1994C16.7211 24.1682 16.6363 24.1608 16.5547 24.1781C16.4732 24.1955 16.3987 24.2368 16.3408 24.2968C16.2662 24.3751 16.2246 24.4791 16.2246 24.5872C16.2246 24.6954 16.2662 24.7994 16.3408 24.8777Z" fill="#C10A0A"/>
<path d="M18.0662 26.5993C18.1467 26.6539 18.2437 26.6788 18.3406 26.6695C18.4374 26.6603 18.528 26.6177 18.5968 26.5489C18.6655 26.4801 18.7082 26.3895 18.7174 26.2927C18.7266 26.1959 18.7018 26.0989 18.6472 26.0184C18.5667 25.9638 18.4697 25.939 18.3729 25.9482C18.276 25.9574 18.1854 26 18.1167 26.0688C18.0479 26.1376 18.0052 26.2282 17.996 26.325C17.9868 26.4218 18.0116 26.5188 18.0662 26.5993Z" fill="#C10A0A"/>
<path d="M11.1064 23.2185C11.1643 23.2785 11.2388 23.3198 11.3204 23.3372C11.4019 23.3545 11.4868 23.3471 11.564 23.3159C11.6413 23.2847 11.7076 23.2311 11.7542 23.162C11.8008 23.0929 11.8257 23.0114 11.8257 22.9281C11.8257 22.8447 11.8008 22.7632 11.7542 22.6941C11.7076 22.625 11.6413 22.5714 11.564 22.5402C11.4868 22.509 11.4019 22.5016 11.3204 22.5189C11.2388 22.5363 11.1643 22.5776 11.1064 22.6376C11.0318 22.7159 10.9902 22.8199 10.9902 22.9281C10.9902 23.0362 11.0318 23.1402 11.1064 23.2185Z" fill="#C10A0A"/>
<path d="M12.829 24.9413C12.9095 24.9959 13.0066 25.0207 13.1034 25.0115C13.2002 25.0023 13.2908 24.9596 13.3596 24.8908C13.4284 24.8221 13.471 24.7315 13.4802 24.6346C13.4894 24.5378 13.4646 24.4408 13.41 24.3603C13.3754 24.3093 13.33 24.2666 13.277 24.2352C13.224 24.2038 13.1647 24.1845 13.1034 24.1786C13.0421 24.1728 12.9802 24.1806 12.9222 24.2015C12.8642 24.2223 12.8116 24.2557 12.768 24.2993C12.7245 24.3428 12.6911 24.3955 12.6702 24.4535C12.6493 24.5114 12.6416 24.5733 12.6474 24.6346C12.6532 24.696 12.6725 24.7553 12.7039 24.8083C12.7353 24.8613 12.7781 24.9067 12.829 24.9413Z" fill="#C10A0A"/>
<path d="M14.8499 26.7887C15.081 26.7887 15.2682 26.6015 15.2682 26.3704C15.2682 26.1394 15.081 25.9521 14.8499 25.9521C14.6189 25.9521 14.4316 26.1394 14.4316 26.3704C14.4316 26.6015 14.6189 26.7887 14.8499 26.7887Z" fill="#C10A0A"/>
<path d="M16.2764 28.3895C16.3342 28.4494 16.4087 28.4908 16.4903 28.5081C16.5718 28.5255 16.6567 28.518 16.734 28.4868C16.8113 28.4556 16.8775 28.402 16.9241 28.3329C16.9707 28.2638 16.9956 28.1823 16.9956 28.099C16.9956 28.0156 16.9707 27.9341 16.9241 27.865C16.8775 27.7959 16.8113 27.7423 16.734 27.7111C16.6567 27.6799 16.5718 27.6725 16.4903 27.6898C16.4087 27.7072 16.3342 27.7485 16.2764 27.8085C16.2018 27.8868 16.1602 27.9908 16.1602 28.099C16.1602 28.2071 16.2018 28.3111 16.2764 28.3895Z" fill="#C10A0A"/>
<path d="M9.31983 25.0056C9.39708 25.0822 9.50149 25.1252 9.61031 25.1252C9.71913 25.1252 9.82354 25.0822 9.90079 25.0056C9.95538 24.9251 9.98021 24.8281 9.97101 24.7313C9.9618 24.6344 9.91914 24.5438 9.85037 24.4751C9.78159 24.4063 9.691 24.3636 9.59417 24.3544C9.49734 24.3452 9.40033 24.37 9.31983 24.4246C9.24319 24.5019 9.2002 24.6063 9.2002 24.7151C9.2002 24.8239 9.24319 24.9283 9.31983 25.0056Z" fill="#C10A0A"/>
<path d="M11.0421 26.7303C11.1 26.7903 11.1745 26.8316 11.256 26.8489C11.3376 26.8663 11.4224 26.8589 11.4997 26.8276C11.577 26.7964 11.6432 26.7428 11.6899 26.6737C11.7365 26.6046 11.7614 26.5231 11.7614 26.4398C11.7614 26.3564 11.7365 26.275 11.6899 26.2058C11.6432 26.1367 11.577 26.0831 11.4997 26.0519C11.4224 26.0207 11.3376 26.0133 11.256 26.0306C11.1745 26.048 11.1 26.0893 11.0421 26.1493C10.9669 26.2273 10.9248 26.3314 10.9248 26.4398C10.9248 26.5482 10.9669 26.6523 11.0421 26.7303Z" fill="#C10A0A"/>
<path d="M13.0609 28.5749C13.2919 28.5749 13.4792 28.3876 13.4792 28.1566C13.4792 27.9256 13.2919 27.7383 13.0609 27.7383C12.8299 27.7383 12.6426 27.9256 12.6426 28.1566C12.6426 28.3876 12.8299 28.5749 13.0609 28.5749Z" fill="#C10A0A"/>
<path d="M14.4897 30.1755C14.567 30.2522 14.6714 30.2951 14.7802 30.2951C14.889 30.2951 14.9935 30.2522 15.0707 30.1755C15.1253 30.095 15.1501 29.998 15.1409 29.9012C15.1317 29.8043 15.0891 29.7138 15.0203 29.645C14.9515 29.5762 14.8609 29.5335 14.7641 29.5243C14.6673 29.5151 14.5703 29.54 14.4897 29.5946C14.4131 29.6718 14.3701 29.7762 14.3701 29.885C14.3701 29.9939 14.4131 30.0983 14.4897 30.1755Z" fill="#C10A0A"/>
<path d="M7.5304 26.7947C7.58829 26.8547 7.66278 26.896 7.74432 26.9134C7.82586 26.9307 7.91072 26.9233 7.98802 26.8921C8.06532 26.8609 8.13153 26.8073 8.17815 26.7382C8.22477 26.6691 8.24968 26.5876 8.24968 26.5042C8.24968 26.4209 8.22477 26.3394 8.17815 26.2703C8.13153 26.2012 8.06532 26.1476 7.98802 26.1164C7.91072 26.0852 7.82586 26.0777 7.74432 26.0951C7.66278 26.1124 7.58829 26.1538 7.5304 26.2137C7.45514 26.2917 7.41309 26.3959 7.41309 26.5042C7.41309 26.6126 7.45514 26.7167 7.5304 26.7947Z" fill="#C10A0A"/>
<path d="M9.24689 28.5173C9.28147 28.5683 9.32689 28.611 9.37989 28.6424C9.4329 28.6738 9.49219 28.6931 9.55352 28.699C9.61485 28.7048 9.67672 28.697 9.73469 28.6762C9.79267 28.6553 9.84532 28.6219 9.88888 28.5783C9.93245 28.5348 9.96585 28.4821 9.9867 28.4241C10.0076 28.3662 10.0154 28.3043 10.0095 28.243C10.0037 28.1816 9.98438 28.1224 9.95298 28.0693C9.92158 28.0163 9.87885 27.9709 9.82786 27.9363C9.74736 27.8818 9.65035 27.8569 9.55352 27.8661C9.45669 27.8753 9.3661 27.918 9.29732 27.9868C9.22854 28.0555 9.18589 28.1461 9.17668 28.243C9.16748 28.3398 9.19231 28.4368 9.24689 28.5173Z" fill="#C10A0A"/>
<path d="M10.9894 30.243C11.0473 30.3029 11.1218 30.3443 11.2033 30.3616C11.2848 30.379 11.3697 30.3716 11.447 30.3403C11.5243 30.3091 11.5905 30.2555 11.6371 30.1864C11.6838 30.1173 11.7087 30.0358 11.7087 29.9525C11.7087 29.8691 11.6838 29.7876 11.6371 29.7185C11.5905 29.6494 11.5243 29.5958 11.447 29.5646C11.3697 29.5334 11.2848 29.526 11.2033 29.5433C11.1218 29.5607 11.0473 29.602 10.9894 29.662C10.9141 29.74 10.8721 29.8441 10.8721 29.9525C10.8721 30.0608 10.9141 30.165 10.9894 30.243Z" fill="#C10A0A"/>
<path d="M12.7011 31.9647C12.7816 32.0193 12.8786 32.0441 12.9755 32.0349C13.0723 32.0257 13.1629 31.9831 13.2317 31.9143C13.3004 31.8455 13.3431 31.7549 13.3523 31.6581C13.3615 31.5612 13.3367 31.4642 13.2821 31.3837C13.2475 31.3327 13.2021 31.29 13.1491 31.2586C13.0961 31.2272 13.0368 31.2079 12.9755 31.2021C12.9141 31.1962 12.8523 31.204 12.7943 31.2249C12.7363 31.2457 12.6837 31.2791 12.6401 31.3227C12.5965 31.3663 12.5631 31.4189 12.5423 31.4769C12.5214 31.5349 12.5136 31.5967 12.5195 31.6581C12.5253 31.7194 12.5446 31.7787 12.576 31.8317C12.6074 31.8847 12.6501 31.9301 12.7011 31.9647Z" fill="#C10A0A"/>
<path d="M5.74119 28.5838C5.79908 28.6438 5.87358 28.6851 5.95512 28.7024C6.03666 28.7198 6.12152 28.7124 6.19882 28.6812C6.27611 28.6499 6.34232 28.5963 6.38894 28.5272C6.43556 28.4581 6.46047 28.3767 6.46047 28.2933C6.46047 28.2099 6.43556 28.1285 6.38894 28.0594C6.34232 27.9903 6.27611 27.9367 6.19882 27.9054C6.12152 27.8742 6.03666 27.8668 5.95512 27.8842C5.87358 27.9015 5.79908 27.9428 5.74119 28.0028C5.6666 28.0811 5.625 28.1851 5.625 28.2933C5.625 28.4015 5.6666 28.5055 5.74119 28.5838Z" fill="#C10A0A"/>
<path d="M7.75912 30.4284C7.99014 30.4284 8.17741 30.2411 8.17741 30.0101C8.17741 29.7791 7.99014 29.5918 7.75912 29.5918C7.5281 29.5918 7.34082 29.7791 7.34082 30.0101C7.34082 30.2411 7.5281 30.4284 7.75912 30.4284Z" fill="#C10A0A"/>
<path d="M9.1883 32.029C9.22288 32.08 9.26829 32.1227 9.3213 32.1542C9.3743 32.1856 9.43359 32.2049 9.49493 32.2107C9.55626 32.2165 9.61813 32.2087 9.6761 32.1879C9.73407 32.167 9.78672 32.1336 9.83029 32.0901C9.87385 32.0465 9.90726 31.9938 9.92811 31.9359C9.94897 31.8779 9.95676 31.816 9.95093 31.7547C9.9451 31.6934 9.92579 31.6341 9.89439 31.5811C9.86299 31.5281 9.82026 31.4826 9.76927 31.4481C9.68877 31.3935 9.59176 31.3687 9.49493 31.3779C9.3981 31.3871 9.3075 31.4297 9.23873 31.4985C9.16995 31.5673 9.12729 31.6579 9.11809 31.7547C9.10888 31.8515 9.13371 31.9485 9.1883 32.029Z" fill="#C10A0A"/>
<path d="M10.9111 33.7547C10.969 33.8147 11.0435 33.856 11.125 33.8733C11.2066 33.8907 11.2914 33.8833 11.3687 33.8521C11.446 33.8208 11.5122 33.7672 11.5589 33.6981C11.6055 33.629 11.6304 33.5476 11.6304 33.4642C11.6304 33.3808 11.6055 33.2994 11.5589 33.2303C11.5122 33.1612 11.446 33.1076 11.3687 33.0763C11.2914 33.0451 11.2066 33.0377 11.125 33.0551C11.0435 33.0724 10.969 33.1137 10.9111 33.1737C10.8365 33.252 10.7949 33.356 10.7949 33.4642C10.7949 33.5723 10.8365 33.6764 10.9111 33.7547Z" fill="#C10A0A"/>
</g>
<defs>
<filter id="filter0_dd_8168_294617" x="0.436523" y="0.436523" width="39.6182" height="39.6221" filterUnits="userSpaceOnUse" color-interpolation-filters="sRGB">
<feFlood flood-opacity="0" result="BackgroundImageFix"/>
<feColorMatrix in="SourceAlpha" type="matrix" values="0 0 0 0 0 0 0 0 0 0 0 0 0 0 0 0 0 0 127 0" result="hardAlpha"/>
<feOffset dy="1"/>
<feGaussianBlur stdDeviation="1"/>
<feColorMatrix type="matrix" values="0 0 0 0 0.0627451 0 0 0 0 0.0941176 0 0 0 0 0.156863 0 0 0 0.06 0"/>
<feBlend mode="normal" in2="BackgroundImageFix" result="effect1_dropShadow_8168_294617"/>
<feColorMatrix in="SourceAlpha" type="matrix" values="0 0 0 0 0 0 0 0 0 0 0 0 0 0 0 0 0 0 127 0" result="hardAlpha"/>
<feOffset dy="1"/>
<feGaussianBlur stdDeviation="1.5"/>
<feColorMatrix type="matrix" values="0 0 0 0 0.0627451 0 0 0 0 0.0941176 0 0 0 0 0.156863 0 0 0 0.1 0"/>
<feBlend mode="normal" in2="effect1_dropShadow_8168_294617" result="effect2_dropShadow_8168_294617"/>
<feBlend mode="normal" in="SourceGraphic" in2="effect2_dropShadow_8168_294617" result="shape"/>
</filter>
</defs>
</svg>
